<svg xmlns="http://www.w3.org/2000/svg" xmlns:xlink="http://www.w3.org/1999/xlink" width="500" zoomAndPan="magnify" viewBox="0 0 375 374.999991" height="500" preserveAspectRatio="xMidYMid meet" version="1.0"><defs><clipPath id="60fe8e70d4"><path d="M 258 178 L 277.484375 178 L 277.484375 185 L 258 185 Z M 258 178 " clip-rule="nonzero"/></clipPath><clipPath id="4ce7da61cd"><path d="M 115 164.097656 L 141 164.097656 L 141 206 L 115 206 Z M 115 164.097656 " clip-rule="nonzero"/></clipPath><clipPath id="a6b35f8592"><path d="M 171 180 L 195 180 L 195 210.597656 L 171 210.597656 Z M 171 180 " clip-rule="nonzero"/></clipPath><clipPath id="f91ca9a2e6"><path d="M 189 164.097656 L 220 164.097656 L 220 205 L 189 205 Z M 189 164.097656 " clip-rule="nonzero"/></clipPath><clipPath id="389b130b32"><path d="M 97.484375 170 L 122 170 L 122 201 L 97.484375 201 Z M 97.484375 170 " clip-rule="nonzero"/></clipPath></defs><path fill="#f7941d" d="M 265.390625 182.75 L 250.203125 182.75 L 250.203125 186.398438 C 250.273438 186.398438 250.308594 186.433594 250.382812 186.503906 C 250.453125 186.578125 250.492188 186.613281 250.527344 186.613281 C 250.417969 186.613281 250.347656 186.613281 250.308594 186.578125 C 250.308594 186.503906 251.425781 186.253906 253.695312 185.863281 C 254.523438 185.71875 255.347656 185.648438 256.175781 185.648438 C 259.597656 185.648438 261.792969 186.613281 262.765625 188.507812 C 263.410156 189.761719 263.734375 192.335938 263.734375 196.199219 L 263.734375 204.921875 C 263.410156 204.816406 262.222656 204.316406 260.101562 203.457031 C 260.101562 202.957031 259.992188 202.671875 259.8125 202.527344 C 259.019531 202.992188 258.335938 203.351562 257.832031 203.601562 C 256.175781 204.386719 254.269531 204.746094 252.109375 204.746094 C 249.121094 204.746094 246.820312 203.816406 245.199219 201.917969 C 244.40625 201.027344 244.011719 199.988281 244.011719 198.878906 C 244.011719 197.628906 244.625 196.375 245.882812 195.160156 C 248.292969 192.765625 251.28125 191.546875 254.882812 191.546875 C 257.042969 191.546875 258.804688 192.050781 260.136719 193.050781 L 260.136719 190.976562 C 259.453125 190.117188 258.804688 189.582031 258.191406 189.296875 C 257.546875 189.007812 256.71875 188.867188 255.601562 188.902344 C 253.152344 188.9375 250.921875 189.402344 248.871094 190.226562 C 247.972656 190.617188 247.070312 190.941406 246.207031 191.226562 L 246.207031 189.546875 C 246.386719 189.367188 246.710938 189.117188 247.070312 188.792969 C 247.144531 188.722656 247.179688 188.6875 247.179688 188.652344 L 247.179688 182.75 L 242.5 182.75 L 242.5 180.03125 L 265.320312 180.03125 L 265.320312 182.75 Z M 260.171875 197.128906 C 260.171875 196.449219 259.378906 195.875 257.796875 195.339844 C 256.464844 194.910156 255.386719 194.695312 254.484375 194.695312 C 251.28125 194.695312 248.726562 195.839844 246.78125 198.128906 C 245.992188 199.058594 245.632812 199.808594 245.632812 200.382812 C 245.957031 201.492188 247.214844 202.027344 249.375 202.027344 C 252.21875 202.027344 254.773438 201.3125 257.113281 199.917969 C 259.164062 198.699219 260.171875 197.769531 260.171875 197.128906 Z M 260.171875 197.128906 " fill-opacity="1" fill-rule="nonzero"/><g clip-path="url(#60fe8e70d4)"><path fill="#f7941d" d="M 277.015625 181.070312 C 277.125 181.070312 277.234375 181.105469 277.339844 181.210938 C 277.414062 181.285156 277.484375 181.390625 277.484375 181.535156 C 277.484375 181.675781 277.449219 181.75 277.339844 181.855469 C 277.269531 181.964844 277.160156 182 277.015625 182 C 276.910156 182 276.800781 181.964844 276.730469 181.890625 C 276.65625 182.214844 276.511719 182.535156 276.296875 182.820312 C 276.082031 183.109375 275.757812 183.285156 275.398438 183.285156 C 275.074219 183.285156 274.820312 183.179688 274.570312 182.929688 C 274.570312 183.035156 274.535156 183.144531 274.535156 183.285156 C 274.535156 183.429688 274.496094 183.539062 274.460938 183.679688 C 274.425781 183.789062 274.355469 183.894531 274.28125 183.964844 C 274.210938 184.039062 274.101562 184.109375 273.957031 184.109375 C 273.777344 184.109375 273.667969 184.039062 273.5625 183.929688 C 273.488281 183.789062 273.417969 183.644531 273.417969 183.5 C 273.308594 183.539062 273.238281 183.574219 273.128906 183.574219 C 273.023438 183.574219 272.914062 183.539062 272.804688 183.429688 C 272.699219 183.324219 272.660156 183.214844 272.660156 183.109375 C 272.660156 183.074219 272.660156 183.035156 272.699219 183 C 272.699219 182.964844 272.734375 182.929688 272.734375 182.894531 L 258.050781 182.894531 L 258.300781 182.464844 C 258.335938 182.394531 258.480469 182.214844 258.660156 181.964844 C 258.839844 181.714844 259.058594 181.464844 259.238281 181.175781 C 259.453125 180.890625 259.632812 180.675781 259.8125 180.460938 C 259.992188 180.246094 260.101562 180.140625 260.171875 180.140625 L 272.734375 180.140625 C 272.699219 179.960938 272.699219 179.816406 272.734375 179.640625 C 272.769531 179.496094 272.914062 179.425781 273.128906 179.425781 C 273.238281 179.425781 273.347656 179.460938 273.417969 179.53125 C 273.417969 179.390625 273.453125 179.246094 273.5625 179.101562 C 273.632812 178.960938 273.777344 178.886719 273.957031 178.886719 C 274.101562 178.886719 274.210938 178.925781 274.28125 179.03125 C 274.355469 179.136719 274.425781 179.246094 274.460938 179.390625 C 274.496094 179.53125 274.535156 179.675781 274.570312 179.816406 C 274.570312 179.960938 274.605469 180.105469 274.605469 180.210938 C 274.820312 179.996094 275.074219 179.890625 275.398438 179.890625 C 275.757812 179.890625 276.082031 180.03125 276.296875 180.320312 C 276.511719 180.605469 276.65625 180.925781 276.730469 181.25 C 276.800781 181.105469 276.910156 181.070312 277.015625 181.070312 M 269.097656 182.320312 C 269.351562 182.320312 269.566406 182.25 269.746094 182.070312 C 269.925781 181.890625 270 181.675781 270 181.425781 C 270 181.175781 269.925781 180.960938 269.746094 180.785156 C 269.566406 180.605469 269.351562 180.535156 269.097656 180.535156 C 268.847656 180.535156 268.628906 180.640625 268.449219 180.820312 C 268.269531 181 268.199219 181.210938 268.199219 181.464844 C 268.199219 181.714844 268.269531 181.929688 268.449219 182.105469 C 268.628906 182.214844 268.847656 182.320312 269.097656 182.320312 Z M 269.097656 182.320312 " fill-opacity="1" fill-rule="nonzero"/></g><g clip-path="url(#4ce7da61cd)"><path fill="#f7941d" d="M 140.53125 182.75 L 125.59375 182.75 L 125.59375 188.617188 C 126.496094 188.113281 127.972656 187.433594 129.988281 186.613281 C 130.8125 186.398438 131.820312 186.292969 133.011719 186.292969 C 134.628906 186.292969 136.070312 186.71875 137.363281 187.613281 C 138.804688 188.578125 139.523438 189.867188 139.523438 191.40625 C 139.523438 193.515625 138.300781 195.015625 135.890625 195.984375 C 134.882812 196.375 134.019531 196.554688 133.296875 196.554688 L 138.554688 202.957031 L 135.671875 205.03125 L 127.539062 195.445312 L 129.050781 192.335938 C 129.84375 192.550781 130.707031 192.65625 131.570312 192.65625 C 132.867188 192.65625 133.910156 192.371094 134.738281 191.761719 C 135.671875 191.082031 136.140625 190.152344 136.140625 188.902344 C 136.140625 187.6875 135.277344 187.078125 133.550781 187.078125 C 132.324219 187.078125 131.066406 187.648438 129.699219 188.832031 C 128.726562 189.652344 127.863281 190.652344 127.035156 191.835938 C 126.0625 193.265625 125.59375 194.480469 125.59375 195.480469 L 125.59375 204.996094 L 121.636719 203.242188 L 121.636719 182.75 L 118.757812 182.75 L 118.757812 180.03125 L 121.527344 180.03125 C 121.527344 175.707031 120.738281 172.128906 119.152344 169.230469 C 118.863281 168.660156 118.253906 167.835938 117.390625 166.730469 C 116.5625 165.65625 115.984375 164.796875 115.699219 164.191406 L 120.339844 164.191406 C 121.242188 165.011719 122.175781 166.371094 123.113281 168.265625 C 124.730469 171.484375 125.558594 175.417969 125.558594 180.03125 L 140.605469 180.03125 L 140.605469 182.75 Z M 140.53125 182.75 " fill-opacity="1" fill-rule="nonzero"/></g><path fill="#f7941d" d="M 163.027344 182.75 L 139.992188 182.75 L 139.992188 180.03125 L 163.027344 180.03125 Z M 161.15625 190.90625 C 161.15625 191.796875 160.617188 192.800781 159.535156 193.910156 C 158.636719 194.875 157.664062 195.554688 156.65625 196.054688 L 153.238281 192.191406 C 154.28125 192.085938 155.253906 191.726562 156.1875 191.046875 C 157.269531 190.296875 157.773438 189.4375 157.773438 188.472656 C 157.773438 187.972656 157.449219 187.507812 156.765625 187.148438 C 156.1875 186.828125 155.613281 186.648438 155.074219 186.648438 C 153.886719 186.648438 152.660156 187.222656 151.332031 188.328125 C 148.59375 190.582031 147.261719 193.085938 147.261719 195.839844 L 147.261719 205.425781 L 142.871094 203.171875 L 142.871094 186.433594 L 147.261719 186.433594 L 147.261719 188.152344 C 147.910156 187.507812 149.277344 186.828125 151.332031 186.113281 C 152.339844 185.753906 153.382812 185.574219 154.425781 185.574219 C 156.621094 185.574219 158.492188 186.398438 160.039062 188.078125 C 160.796875 188.9375 161.15625 189.867188 161.15625 190.90625 Z M 161.15625 190.90625 " fill-opacity="1" fill-rule="nonzero"/><path fill="#f7941d" d="M 171.703125 182.75 L 162.417969 182.75 L 162.417969 180.03125 L 171.703125 180.03125 Z M 169.109375 205.136719 L 165.296875 203.027344 L 165.296875 185.574219 L 169.109375 185.574219 Z M 169.109375 205.136719 " fill-opacity="1" fill-rule="nonzero"/><g clip-path="url(#a6b35f8592)"><path fill="#f7941d" d="M 194.664062 182.75 L 192.183594 182.75 L 192.183594 191.371094 C 191.28125 190.832031 189.988281 190.402344 188.292969 190.011719 C 186.710938 189.652344 185.34375 189.472656 184.191406 189.472656 C 181.421875 189.472656 179.082031 189.976562 177.210938 190.941406 C 176.128906 191.511719 175.625 192.226562 175.625 193.121094 C 175.625 194.335938 176.273438 194.945312 177.53125 194.945312 C 178.324219 194.945312 179.332031 194.730469 180.554688 194.265625 C 181.347656 193.980469 182.390625 193.621094 183.652344 193.195312 C 184.191406 193.015625 185.128906 192.90625 186.496094 192.90625 C 189.121094 192.90625 191.066406 193.730469 192.363281 195.339844 C 192.972656 196.125 193.296875 197.019531 193.296875 198.058594 C 193.296875 200.453125 191.785156 202.347656 188.726562 203.707031 C 187.46875 204.28125 186.28125 204.601562 185.128906 204.671875 C 186.207031 205.746094 187.25 206.320312 188.257812 206.320312 C 188.582031 206.320312 188.90625 206.28125 189.265625 206.175781 L 191.570312 209.894531 C 191.101562 210.289062 190.128906 210.503906 188.691406 210.503906 C 187.503906 210.503906 186.496094 210.109375 185.667969 209.285156 C 185.234375 208.859375 184.585938 207.929688 183.796875 206.53125 C 183.113281 205.351562 182.535156 204.746094 182.105469 204.710938 C 179.296875 204.636719 177.136719 204.136719 175.625 203.207031 C 174.652344 202.636719 174.1875 201.8125 174.1875 200.773438 C 174.1875 199.523438 174.941406 198.878906 176.453125 198.878906 C 177.027344 198.878906 178.179688 199.308594 179.980469 200.167969 C 181.78125 201.027344 183.21875 201.453125 184.40625 201.453125 C 186.710938 201.453125 188.871094 200.917969 190.886719 199.808594 C 191.859375 199.273438 192.363281 198.628906 192.363281 197.878906 C 192.363281 196.734375 191.460938 196.160156 189.625 196.160156 C 189.050781 196.160156 187.25 196.554688 184.191406 197.378906 C 182.390625 197.878906 181.277344 198.09375 180.878906 198.09375 C 178.46875 198.09375 176.488281 196.949219 174.90625 194.695312 C 174.148438 193.621094 173.753906 192.441406 173.753906 191.191406 C 173.753906 188.652344 175.480469 186.933594 179.007812 186.039062 C 180.449219 185.683594 181.816406 185.503906 183.074219 185.503906 C 184.550781 185.503906 186.601562 185.863281 189.265625 186.578125 L 189.265625 182.75 L 171.125 182.75 L 171.125 180.03125 L 194.664062 180.03125 Z M 194.664062 182.75 " fill-opacity="1" fill-rule="nonzero"/></g><g clip-path="url(#f91ca9a2e6)"><path fill="#f7941d" d="M 219.464844 182.75 L 201.074219 182.75 L 201.074219 189.582031 C 202.726562 187.792969 204.277344 186.613281 205.679688 186.113281 C 206.472656 185.824219 207.371094 185.683594 208.34375 185.683594 C 212.050781 185.683594 214.820312 187.507812 216.65625 191.117188 C 217.449219 192.691406 217.882812 194.265625 217.882812 195.804688 C 217.882812 198.628906 216.730469 201.132812 214.390625 203.421875 C 213.597656 204.171875 213.023438 204.710938 212.660156 204.996094 L 208.917969 202.777344 C 209.855469 201.8125 210.933594 200.597656 212.121094 199.164062 C 213.488281 197.554688 214.171875 195.519531 214.171875 193.050781 C 214.171875 191.585938 213.851562 190.367188 213.164062 189.367188 C 212.375 188.222656 211.292969 187.648438 209.890625 187.6875 C 208.59375 187.722656 207.191406 188.222656 205.679688 189.152344 C 204.347656 190.011719 203.230469 191.011719 202.367188 192.191406 C 201.394531 193.445312 200.929688 194.695312 200.929688 195.875 L 200.929688 204.851562 L 196.679688 202.597656 L 196.679688 182.75 L 194.160156 182.75 L 194.160156 180.03125 L 196.679688 180.03125 C 196.679688 175.597656 195.53125 171.808594 193.191406 168.695312 C 191.785156 166.800781 190.492188 165.476562 189.300781 164.726562 L 193.910156 164.691406 C 196.464844 166.085938 198.480469 169.054688 199.992188 173.667969 C 200.710938 175.847656 201.074219 177.992188 201.074219 180.066406 L 219.464844 180.066406 Z M 219.464844 182.75 " fill-opacity="1" fill-rule="nonzero"/></g><path fill="#f7941d" d="M 243.472656 182.75 L 218.960938 182.75 L 218.960938 180.03125 L 243.472656 180.03125 Z M 238.578125 192.726562 C 238.578125 189.117188 236.847656 187.292969 233.394531 187.292969 C 230.839844 187.292969 228.714844 188.617188 226.988281 191.261719 C 225.476562 193.621094 224.71875 196.125 224.71875 198.773438 L 224.71875 205.351562 L 220.976562 203.421875 L 220.976562 186.398438 L 224.898438 186.398438 L 224.898438 189.082031 L 226.914062 187.578125 C 228.714844 186.21875 230.585938 185.574219 232.601562 185.574219 C 235.300781 185.574219 237.53125 186.613281 239.332031 188.6875 C 240.988281 190.652344 241.851562 193.015625 241.851562 195.734375 C 241.851562 199.164062 240.375 202.457031 237.460938 205.601562 L 233.070312 202.847656 C 234.4375 201.492188 235.589844 200.273438 236.5625 199.128906 C 237.894531 197.554688 238.578125 195.410156 238.578125 192.726562 Z M 238.578125 192.726562 " fill-opacity="1" fill-rule="nonzero"/><g clip-path="url(#389b130b32)"><path fill="#f7941d" d="M 119.40625 179.996094 C 119.476562 179.996094 119.621094 180.105469 119.800781 180.355469 C 120.015625 180.605469 120.234375 180.890625 120.484375 181.175781 C 120.699219 181.5 120.953125 181.785156 121.167969 182.105469 C 121.382812 182.394531 121.527344 182.609375 121.5625 182.714844 L 106.769531 182.714844 C 106.84375 182.894531 106.808594 183.035156 106.734375 183.179688 C 106.664062 183.324219 106.519531 183.394531 106.339844 183.394531 C 106.230469 183.394531 106.160156 183.359375 106.050781 183.324219 L 106.085938 183.359375 C 106.085938 183.5 106.050781 183.644531 105.945312 183.789062 C 105.835938 183.894531 105.726562 183.964844 105.546875 183.964844 C 105.402344 183.964844 105.257812 183.894531 105.152344 183.75 C 104.324219 184.039062 103.890625 184.609375 103.890625 185.503906 C 103.890625 185.96875 103.964844 186.46875 104.144531 187.007812 C 104.324219 187.542969 104.539062 188.078125 104.753906 188.652344 C 104.972656 189.222656 105.1875 189.796875 105.402344 190.402344 C 105.621094 190.976562 105.726562 191.585938 105.761719 192.191406 C 105.980469 192.550781 106.230469 192.90625 106.449219 193.265625 C 106.664062 193.621094 106.84375 193.980469 107.023438 194.375 C 107.203125 194.730469 107.347656 195.125 107.457031 195.519531 C 107.5625 195.910156 107.636719 196.339844 107.636719 196.769531 C 107.636719 197.128906 107.597656 197.449219 107.492188 197.734375 C 107.382812 198.019531 107.238281 198.34375 107.023438 198.59375 C 107.058594 198.699219 107.058594 198.808594 107.023438 198.878906 C 106.988281 198.988281 106.914062 199.023438 106.734375 199.023438 C 106.734375 199.273438 106.664062 199.523438 106.484375 199.773438 C 106.304688 200.023438 106.160156 200.238281 105.980469 200.417969 L 105.332031 199.628906 C 105.546875 199.59375 105.761719 199.523438 105.980469 199.378906 C 106.195312 199.238281 106.339844 199.09375 106.484375 198.914062 C 106.375 198.84375 106.339844 198.738281 106.339844 198.628906 C 106.339844 198.558594 106.375 198.484375 106.449219 198.414062 C 106.519531 198.34375 106.589844 198.34375 106.664062 198.34375 C 106.699219 198.34375 106.734375 198.34375 106.769531 198.34375 C 106.808594 198.34375 106.84375 198.34375 106.84375 198.378906 C 107.058594 198.09375 107.203125 197.84375 107.273438 197.59375 C 107.347656 197.34375 107.382812 197.054688 107.382812 196.699219 C 107.382812 195.910156 107.203125 195.160156 106.878906 194.515625 C 106.554688 193.835938 106.160156 193.195312 105.761719 192.550781 C 105.726562 193.195312 105.582031 193.800781 105.296875 194.300781 C 105.007812 194.839844 104.613281 195.269531 104.109375 195.695312 C 104.144531 195.910156 104.070312 196.019531 103.820312 196.054688 C 103.820312 196.304688 103.710938 196.554688 103.566406 196.804688 C 103.425781 197.054688 103.242188 197.269531 103.0625 197.449219 L 102.417969 196.664062 C 102.632812 196.625 102.847656 196.554688 103.0625 196.410156 C 103.242188 196.269531 103.425781 196.125 103.53125 195.945312 C 103.460938 195.910156 103.425781 195.839844 103.425781 195.734375 C 103.425781 195.625 103.460938 195.554688 103.53125 195.519531 C 103.605469 195.445312 103.675781 195.410156 103.746094 195.410156 C 103.855469 195.410156 103.929688 195.445312 103.964844 195.480469 C 104.46875 195.089844 104.863281 194.625 105.117188 194.125 C 105.367188 193.621094 105.511719 193.015625 105.511719 192.371094 L 105.511719 192.191406 C 105.257812 191.835938 104.9375 191.371094 104.574219 190.867188 C 104.179688 190.367188 103.820312 189.832031 103.460938 189.257812 C 103.101562 188.6875 102.8125 188.152344 102.558594 187.613281 C 102.308594 187.078125 102.164062 186.578125 102.164062 186.113281 C 102.164062 185.753906 102.234375 185.398438 102.378906 185.039062 C 102.523438 184.683594 102.738281 184.429688 102.992188 184.179688 C 103.242188 183.929688 103.53125 183.75 103.890625 183.574219 C 104.25 183.429688 104.574219 183.359375 104.972656 183.359375 L 105.042969 183.359375 C 105.042969 183.25 105.042969 183.179688 105.007812 183.074219 C 104.972656 182.964844 104.972656 182.859375 104.9375 182.785156 C 104.683594 183.035156 104.394531 183.144531 104.109375 183.144531 C 103.746094 183.144531 103.425781 183 103.207031 182.679688 C 102.992188 182.394531 102.847656 182.070312 102.8125 181.75 C 102.738281 181.820312 102.632812 181.855469 102.523438 181.855469 C 102.417969 181.855469 102.308594 181.820312 102.199219 181.714844 C 102.128906 181.640625 102.054688 181.535156 102.054688 181.390625 C 102.054688 181.25 102.09375 181.175781 102.199219 181.070312 C 102.273438 181 102.378906 180.925781 102.523438 180.925781 C 102.597656 180.925781 102.703125 180.960938 102.8125 181.035156 C 102.847656 180.746094 102.992188 180.460938 103.171875 180.175781 C 103.351562 179.890625 103.605469 179.746094 103.929688 179.675781 C 103.785156 179.175781 103.496094 178.851562 103.101562 178.671875 C 102.703125 178.496094 102.273438 178.421875 101.804688 178.351562 C 101.949219 178.316406 102.09375 178.316406 102.164062 178.316406 C 102.378906 178.316406 102.632812 178.351562 102.847656 178.421875 C 103.101562 178.496094 103.316406 178.601562 103.496094 178.710938 C 103.28125 178.457031 102.957031 178.316406 102.632812 178.207031 C 102.273438 178.136719 101.949219 178.101562 101.625 178.101562 L 101.445312 178.101562 C 101.625 178.066406 101.839844 178.03125 102.019531 178.03125 C 102.273438 178.03125 102.558594 178.066406 102.847656 178.171875 C 103.136719 178.28125 103.386719 178.386719 103.605469 178.566406 C 103.460938 178.316406 103.242188 178.136719 102.957031 178.066406 C 102.667969 177.992188 102.417969 177.957031 102.09375 177.957031 C 101.914062 177.957031 101.730469 177.957031 101.550781 177.992188 C 101.371094 178.03125 101.191406 178.03125 101.011719 178.03125 C 100.617188 178.03125 100.257812 177.921875 99.933594 177.671875 C 99.609375 177.421875 99.429688 177.101562 99.355469 176.707031 C 99.464844 176.921875 99.679688 177.136719 99.96875 177.242188 C 100.257812 177.351562 100.507812 177.457031 100.761719 177.457031 C 100.867188 177.457031 101.011719 177.457031 101.15625 177.421875 C 101.300781 177.421875 101.445312 177.421875 101.550781 177.421875 C 101.695312 177.421875 101.875 177.457031 102.054688 177.492188 C 102.234375 177.566406 102.378906 177.636719 102.488281 177.742188 C 102.378906 177.671875 102.234375 177.636719 102.09375 177.566406 C 101.949219 177.492188 101.804688 177.492188 101.660156 177.492188 C 101.515625 177.492188 101.371094 177.527344 101.226562 177.566406 C 101.085938 177.601562 100.976562 177.636719 100.832031 177.636719 C 100.796875 177.636719 100.722656 177.636719 100.6875 177.636719 C 100.617188 177.636719 100.582031 177.636719 100.542969 177.601562 C 100.617188 177.707031 100.722656 177.816406 100.832031 177.851562 C 100.941406 177.921875 101.085938 177.921875 101.191406 177.921875 C 101.371094 177.921875 101.515625 177.921875 101.660156 177.886719 C 101.804688 177.851562 101.949219 177.851562 102.128906 177.851562 C 102.34375 177.851562 102.558594 177.886719 102.8125 177.921875 C 103.0625 177.957031 103.28125 178.066406 103.460938 178.171875 C 102.921875 177.421875 102.234375 177.0625 101.335938 177.0625 C 101.226562 177.0625 101.085938 177.0625 100.976562 177.101562 C 100.867188 177.101562 100.722656 177.136719 100.617188 177.136719 C 100.4375 177.136719 100.257812 177.101562 100.039062 177.027344 C 99.824219 176.957031 99.679688 176.8125 99.609375 176.671875 C 99.753906 176.777344 99.898438 176.886719 100.003906 176.921875 C 100.113281 176.957031 100.257812 176.992188 100.472656 176.992188 C 100.652344 176.992188 100.796875 176.992188 100.976562 176.957031 C 101.121094 176.957031 101.300781 176.921875 101.480469 176.921875 C 101.769531 176.921875 102.054688 176.992188 102.378906 177.171875 C 102.703125 177.351562 102.957031 177.492188 103.171875 177.707031 C 103.171875 177.636719 103.136719 177.566406 103.0625 177.492188 C 102.992188 177.421875 102.882812 177.351562 102.8125 177.277344 C 102.703125 177.207031 102.597656 177.136719 102.523438 177.0625 C 102.417969 176.992188 102.34375 176.957031 102.308594 176.921875 C 102.164062 176.8125 101.984375 176.742188 101.804688 176.707031 C 101.625 176.671875 101.445312 176.671875 101.265625 176.671875 L 100.507812 176.671875 C 100.21875 176.671875 99.96875 176.636719 99.753906 176.597656 C 99.535156 176.527344 99.355469 176.457031 99.175781 176.347656 C 98.996094 176.242188 98.851562 176.097656 98.707031 175.917969 C 98.566406 175.742188 98.421875 175.527344 98.242188 175.277344 C 98.097656 175.0625 97.953125 174.847656 97.882812 174.703125 C 97.773438 174.5625 97.699219 174.417969 97.664062 174.273438 C 97.628906 174.132812 97.558594 173.988281 97.519531 173.808594 C 97.484375 173.632812 97.484375 173.378906 97.484375 173.09375 C 97.484375 172.773438 97.519531 172.449219 97.558594 172.128906 C 97.558594 172.34375 97.519531 172.558594 97.519531 172.84375 C 97.519531 173.128906 97.558594 173.417969 97.59375 173.667969 C 97.664062 173.953125 97.738281 174.203125 97.84375 174.453125 C 97.953125 174.703125 98.097656 174.882812 98.277344 175.027344 L 98.3125 174.882812 L 98.347656 175.097656 C 98.601562 175.347656 98.890625 175.527344 99.210938 175.5625 C 99.535156 175.597656 99.859375 175.632812 100.21875 175.667969 C 99.898438 175.5625 99.609375 175.492188 99.285156 175.382812 C 98.996094 175.277344 98.707031 175.167969 98.492188 174.988281 C 98.277344 174.8125 98.0625 174.632812 97.917969 174.382812 C 97.773438 174.132812 97.699219 173.808594 97.699219 173.417969 C 97.699219 173.128906 97.699219 172.878906 97.738281 172.59375 C 97.808594 172.34375 97.84375 172.058594 97.84375 171.769531 C 97.84375 171.558594 97.808594 171.34375 97.773438 171.128906 C 97.738281 170.914062 97.664062 170.699219 97.558594 170.519531 C 97.664062 170.699219 97.84375 170.878906 98.097656 170.984375 C 98.3125 171.128906 98.601562 171.234375 98.851562 171.34375 C 99.105469 171.449219 99.394531 171.558594 99.714844 171.664062 C 100.003906 171.769531 100.292969 171.914062 100.507812 172.09375 C 100.722656 172.308594 100.941406 172.523438 101.085938 172.773438 C 101.226562 173.023438 101.300781 173.308594 101.300781 173.667969 C 101.300781 173.917969 101.226562 174.167969 101.121094 174.417969 C 101.011719 174.667969 100.941406 174.917969 100.941406 175.132812 C 100.941406 175.453125 101.085938 175.667969 101.371094 175.8125 C 101.300781 175.707031 101.226562 175.632812 101.15625 175.5625 C 101.085938 175.492188 101.085938 175.382812 101.085938 175.277344 C 101.085938 175.132812 101.121094 174.988281 101.15625 174.847656 C 101.226562 174.703125 101.265625 174.5625 101.335938 174.417969 C 101.410156 174.273438 101.480469 174.132812 101.515625 173.988281 C 101.589844 173.84375 101.589844 173.703125 101.589844 173.558594 C 101.589844 173.34375 101.515625 173.128906 101.371094 172.878906 C 101.226562 172.664062 101.085938 172.449219 100.90625 172.308594 C 101.085938 172.414062 101.265625 172.59375 101.445312 172.773438 C 101.625 172.953125 101.695312 173.203125 101.695312 173.453125 C 101.695312 173.632812 101.660156 173.773438 101.625 173.917969 C 101.589844 174.058594 101.515625 174.203125 101.445312 174.347656 C 101.371094 174.488281 101.300781 174.632812 101.265625 174.773438 C 101.191406 174.917969 101.191406 175.0625 101.191406 175.242188 C 101.191406 175.453125 101.265625 175.632812 101.445312 175.742188 C 101.371094 175.632812 101.335938 175.492188 101.335938 175.347656 C 101.335938 175.167969 101.371094 175.027344 101.445312 174.882812 C 101.515625 174.738281 101.589844 174.632812 101.660156 174.488281 C 101.730469 174.347656 101.804688 174.238281 101.875 174.097656 C 101.949219 173.953125 101.984375 173.808594 101.984375 173.59375 C 101.984375 173.523438 101.984375 173.453125 101.949219 173.378906 C 101.949219 173.308594 101.914062 173.238281 101.839844 173.164062 C 102.019531 173.273438 102.128906 173.453125 102.128906 173.703125 C 102.128906 173.882812 102.09375 174.023438 102.019531 174.167969 C 101.949219 174.308594 101.875 174.453125 101.769531 174.5625 C 101.660156 174.703125 101.589844 174.8125 101.515625 174.953125 C 101.445312 175.0625 101.410156 175.203125 101.410156 175.347656 C 101.410156 175.382812 101.410156 175.453125 101.445312 175.527344 C 101.445312 175.597656 101.480469 175.632812 101.515625 175.667969 C 101.480469 175.3125 101.550781 175.027344 101.730469 174.8125 C 101.914062 174.597656 102.164062 174.453125 102.523438 174.453125 C 102.667969 174.453125 102.8125 174.488281 102.957031 174.5625 C 103.0625 174.632812 103.171875 174.738281 103.171875 174.882812 C 103.027344 174.667969 102.8125 174.597656 102.523438 174.597656 C 102.273438 174.597656 102.054688 174.667969 101.875 174.847656 C 101.695312 175.027344 101.589844 175.242188 101.589844 175.492188 C 101.589844 175.667969 101.660156 175.847656 101.804688 175.957031 C 101.769531 175.882812 101.769531 175.777344 101.769531 175.632812 C 101.769531 175.492188 101.804688 175.382812 101.914062 175.277344 C 101.984375 175.167969 102.128906 175.097656 102.273438 175.097656 C 102.488281 175.097656 102.597656 175.203125 102.632812 175.382812 C 102.558594 175.277344 102.453125 175.203125 102.308594 175.203125 C 102.199219 175.203125 102.09375 175.242188 102.019531 175.347656 C 101.949219 175.453125 101.914062 175.5625 101.914062 175.667969 C 101.914062 175.777344 101.949219 175.917969 102.054688 176.0625 C 102.128906 176.207031 102.234375 176.347656 102.34375 176.527344 C 102.453125 176.671875 102.558594 176.8125 102.703125 176.957031 C 102.8125 177.101562 102.921875 177.207031 102.957031 177.316406 C 102.847656 177.0625 102.777344 176.8125 102.777344 176.5625 C 102.777344 176.3125 102.847656 176.027344 102.957031 175.8125 C 103.242188 175.632812 103.425781 175.453125 103.605469 175.277344 C 103.386719 175.492188 103.316406 175.742188 103.316406 175.992188 C 103.316406 176.132812 103.351562 176.3125 103.386719 176.457031 C 103.460938 176.597656 103.496094 176.742188 103.566406 176.886719 C 103.640625 177.027344 103.710938 177.171875 103.746094 177.316406 C 103.820312 177.457031 103.820312 177.601562 103.820312 177.742188 C 103.820312 177.78125 103.820312 177.851562 103.785156 177.921875 C 103.785156 177.992188 103.746094 178.03125 103.675781 178.066406 C 103.710938 177.992188 103.710938 177.886719 103.675781 177.78125 C 103.640625 177.671875 103.605469 177.527344 103.53125 177.421875 C 103.460938 177.316406 103.386719 177.171875 103.316406 177.0625 C 103.242188 176.957031 103.171875 176.851562 103.136719 176.8125 C 103.101562 176.921875 103.101562 176.992188 103.101562 177.0625 C 103.101562 177.242188 103.136719 177.457031 103.207031 177.636719 C 103.28125 177.816406 103.386719 178.03125 103.460938 178.246094 C 103.566406 178.457031 103.640625 178.671875 103.746094 178.886719 C 103.855469 179.101562 103.890625 179.316406 103.929688 179.53125 C 103.964844 179.460938 104 179.390625 104.035156 179.316406 C 104.035156 179.246094 104.070312 179.175781 104.070312 179.101562 C 104.070312 178.851562 104.035156 178.566406 103.964844 178.351562 C 103.890625 178.101562 103.855469 177.851562 103.855469 177.601562 C 103.855469 177.457031 103.890625 177.316406 103.929688 177.136719 C 104 176.957031 104.070312 176.8125 104.214844 176.742188 C 104.109375 176.851562 104.035156 176.992188 104 177.171875 C 103.964844 177.351562 103.929688 177.492188 103.929688 177.636719 C 103.929688 177.886719 103.964844 178.171875 104.035156 178.421875 C 104.109375 178.710938 104.144531 178.960938 104.144531 179.246094 C 104.144531 179.351562 104.144531 179.425781 104.144531 179.496094 C 104.144531 179.566406 104.144531 179.675781 104.109375 179.746094 C 104.214844 179.746094 104.359375 179.816406 104.46875 179.855469 C 104.574219 179.890625 104.683594 179.996094 104.792969 180.066406 C 104.792969 179.960938 104.828125 179.855469 104.863281 179.710938 C 104.898438 179.566406 104.9375 179.390625 104.972656 179.246094 C 105.007812 179.101562 105.078125 178.960938 105.152344 178.886719 C 105.222656 178.78125 105.332031 178.746094 105.476562 178.746094 C 105.65625 178.746094 105.761719 178.816406 105.871094 178.925781 C 105.980469 179.03125 106.015625 179.175781 106.015625 179.351562 L 105.980469 179.390625 C 106.050781 179.316406 106.125 179.28125 106.265625 179.28125 C 106.410156 179.28125 106.484375 179.316406 106.589844 179.425781 C 106.699219 179.53125 106.734375 179.640625 106.734375 179.746094 C 106.734375 179.78125 106.734375 179.855469 106.699219 179.890625 C 106.699219 179.960938 106.664062 179.996094 106.664062 180.03125 L 119.40625 180.03125 " fill-opacity="1" fill-rule="nonzero"/></g><path fill="#f7941d" d="M 164.792969 177.207031 C 164.71875 177.207031 164.574219 177.207031 164.394531 177.242188 C 164.9375 177.277344 165.402344 177.421875 165.835938 177.601562 C 166.230469 177.78125 166.554688 178.136719 166.699219 178.636719 C 166.808594 178.601562 166.949219 178.601562 167.09375 178.601562 C 167.132812 178.53125 167.132812 178.457031 167.132812 178.386719 L 167.132812 178.136719 C 167.132812 177.816406 167.09375 177.527344 166.988281 177.207031 C 166.914062 176.921875 166.84375 176.597656 166.84375 176.3125 C 166.84375 176.171875 166.878906 175.992188 166.914062 175.8125 C 166.953125 175.632812 167.058594 175.492188 167.132812 175.347656 C 166.988281 175.417969 166.878906 175.5625 166.808594 175.777344 C 166.734375 175.992188 166.699219 176.132812 166.699219 176.3125 C 166.699219 176.597656 166.734375 176.886719 166.84375 177.171875 C 166.914062 177.457031 166.988281 177.742188 166.988281 178.03125 C 166.988281 178.101562 166.988281 178.207031 166.953125 178.28125 C 166.953125 178.351562 166.914062 178.421875 166.84375 178.496094 C 166.808594 178.246094 166.734375 178.03125 166.628906 177.78125 C 166.519531 177.566406 166.410156 177.316406 166.304688 177.101562 C 166.195312 176.886719 166.085938 176.636719 166.015625 176.421875 C 165.945312 176.207031 165.871094 175.992188 165.871094 175.777344 C 165.871094 175.707031 165.871094 175.597656 165.90625 175.492188 C 165.945312 175.5625 166.015625 175.667969 166.085938 175.777344 C 166.160156 175.917969 166.230469 176.027344 166.304688 176.171875 C 166.375 176.3125 166.410156 176.457031 166.449219 176.597656 C 166.484375 176.742188 166.484375 176.851562 166.449219 176.921875 C 166.484375 176.886719 166.519531 176.8125 166.554688 176.742188 C 166.554688 176.671875 166.589844 176.597656 166.589844 176.5625 C 166.589844 176.421875 166.554688 176.242188 166.484375 176.097656 C 166.410156 175.917969 166.339844 175.777344 166.265625 175.632812 C 166.195312 175.492188 166.125 175.3125 166.050781 175.132812 C 165.980469 174.953125 165.945312 174.773438 165.945312 174.632812 C 165.945312 174.347656 166.050781 174.097656 166.265625 173.84375 C 166.050781 174.023438 165.871094 174.238281 165.726562 174.523438 C 165.582031 174.8125 165.511719 175.097656 165.511719 175.382812 C 165.511719 175.667969 165.582031 175.957031 165.726562 176.242188 C 165.65625 176.132812 165.546875 176.027344 165.441406 175.847656 C 165.296875 175.707031 165.1875 175.527344 165.042969 175.347656 C 164.898438 175.167969 164.792969 175.027344 164.71875 174.847656 C 164.613281 174.667969 164.574219 174.523438 164.574219 174.417969 C 164.574219 174.308594 164.613281 174.167969 164.683594 174.058594 C 164.753906 173.953125 164.863281 173.882812 165.007812 173.882812 C 165.152344 173.882812 165.296875 173.953125 165.367188 174.058594 C 165.332031 173.84375 165.1875 173.738281 164.9375 173.738281 C 164.753906 173.738281 164.613281 173.808594 164.539062 173.917969 C 164.433594 174.023438 164.394531 174.167969 164.394531 174.347656 C 164.394531 174.523438 164.394531 174.632812 164.433594 174.703125 C 164.289062 174.5625 164.214844 174.382812 164.214844 174.203125 C 164.214844 173.917969 164.324219 173.667969 164.539062 173.488281 C 164.753906 173.308594 164.972656 173.203125 165.257812 173.203125 C 165.546875 173.203125 165.800781 173.308594 165.945312 173.523438 C 165.90625 173.34375 165.835938 173.238281 165.691406 173.164062 C 165.546875 173.09375 165.402344 173.058594 165.222656 173.058594 C 164.828125 173.058594 164.539062 173.203125 164.324219 173.453125 C 164.109375 173.703125 164.035156 174.023438 164.109375 174.417969 C 164.070312 174.382812 164.035156 174.347656 164.035156 174.273438 C 164.035156 174.203125 164 174.132812 164 174.097656 C 164 173.953125 164.035156 173.808594 164.109375 173.667969 C 164.179688 173.523438 164.289062 173.378906 164.394531 173.238281 C 164.503906 173.09375 164.574219 172.953125 164.683594 172.773438 C 164.753906 172.628906 164.792969 172.449219 164.792969 172.273438 C 164.792969 171.984375 164.683594 171.808594 164.46875 171.664062 C 164.503906 171.734375 164.539062 171.808594 164.574219 171.878906 C 164.574219 171.949219 164.613281 172.023438 164.613281 172.128906 C 164.613281 172.34375 164.574219 172.523438 164.503906 172.664062 C 164.433594 172.808594 164.359375 172.988281 164.25 173.128906 C 164.179688 173.273438 164.070312 173.417969 164 173.558594 C 163.929688 173.703125 163.890625 173.882812 163.890625 174.058594 C 163.890625 174.238281 163.929688 174.382812 164 174.488281 C 163.820312 174.347656 163.710938 174.167969 163.710938 173.917969 C 163.710938 173.738281 163.746094 173.558594 163.820312 173.417969 C 163.890625 173.273438 163.964844 173.09375 164.035156 172.953125 C 164.109375 172.773438 164.179688 172.628906 164.25 172.449219 C 164.324219 172.273438 164.359375 172.128906 164.359375 171.914062 C 164.359375 171.628906 164.25 171.378906 164.070312 171.164062 C 163.855469 170.949219 163.675781 170.769531 163.460938 170.625 C 163.640625 170.804688 163.820312 171.019531 163.964844 171.269531 C 164.109375 171.519531 164.179688 171.769531 164.179688 172.023438 C 164.179688 172.164062 164.144531 172.34375 164.070312 172.488281 C 164 172.628906 163.929688 172.808594 163.855469 172.953125 C 163.785156 173.09375 163.710938 173.273438 163.640625 173.417969 C 163.566406 173.558594 163.53125 173.738281 163.53125 173.882812 C 163.53125 174.023438 163.566406 174.132812 163.640625 174.203125 C 163.710938 174.273438 163.785156 174.382812 163.855469 174.488281 C 163.53125 174.308594 163.386719 174.058594 163.386719 173.703125 C 163.386719 173.417969 163.460938 173.164062 163.566406 172.878906 C 163.710938 172.628906 163.746094 172.34375 163.746094 172.058594 C 163.746094 171.664062 163.675781 171.34375 163.496094 171.054688 C 163.316406 170.769531 163.101562 170.554688 162.847656 170.375 C 162.597656 170.199219 162.308594 170.019531 161.949219 169.910156 C 161.625 169.769531 161.300781 169.660156 161.011719 169.554688 C 160.722656 169.445312 160.4375 169.304688 160.183594 169.160156 C 159.933594 169.015625 159.714844 168.839844 159.574219 168.625 C 159.679688 168.839844 159.789062 169.089844 159.824219 169.304688 C 159.859375 169.519531 159.898438 169.769531 159.898438 170.019531 C 159.898438 170.339844 159.898438 170.625 159.859375 170.949219 C 159.824219 171.234375 159.824219 171.558594 159.824219 171.878906 C 159.824219 172.308594 159.898438 172.664062 160.039062 172.953125 C 160.183594 173.238281 160.402344 173.453125 160.652344 173.632812 C 160.90625 173.808594 161.226562 173.953125 161.550781 174.058594 C 161.875 174.167969 162.234375 174.273438 162.558594 174.382812 C 162.164062 174.347656 161.769531 174.308594 161.445312 174.238281 C 161.085938 174.203125 160.761719 174.023438 160.472656 173.738281 L 160.4375 173.488281 L 160.402344 173.632812 C 160.183594 173.488281 160.039062 173.273438 159.933594 172.988281 C 159.824219 172.738281 159.714844 172.414062 159.679688 172.128906 C 159.644531 171.84375 159.574219 171.519531 159.574219 171.199219 C 159.574219 170.878906 159.574219 170.625 159.609375 170.414062 C 159.574219 170.769531 159.535156 171.128906 159.535156 171.484375 C 159.535156 171.808594 159.535156 172.058594 159.574219 172.273438 C 159.609375 172.488281 159.644531 172.628906 159.714844 172.808594 C 159.789062 172.953125 159.859375 173.128906 159.96875 173.273438 C 160.078125 173.417969 160.21875 173.632812 160.402344 173.882812 C 160.582031 174.167969 160.761719 174.382812 160.90625 174.5625 C 161.046875 174.738281 161.226562 174.917969 161.410156 175.027344 C 161.589844 175.167969 161.804688 175.242188 162.054688 175.3125 C 162.308594 175.382812 162.597656 175.417969 162.921875 175.417969 L 163.710938 175.417969 C 163.890625 175.417969 164.109375 175.417969 164.289062 175.453125 C 164.503906 175.492188 164.683594 175.5625 164.863281 175.667969 C 164.898438 175.707031 165.007812 175.742188 165.078125 175.8125 C 165.1875 175.882812 165.296875 175.957031 165.402344 176.027344 C 165.511719 176.097656 165.621094 176.207031 165.691406 176.277344 C 165.761719 176.347656 165.835938 176.457031 165.835938 176.492188 C 165.582031 176.277344 165.296875 176.097656 164.9375 175.917969 C 164.574219 175.742188 164.25 175.632812 163.964844 175.632812 C 163.785156 175.632812 163.605469 175.632812 163.425781 175.667969 C 163.242188 175.707031 163.0625 175.707031 162.882812 175.707031 C 162.667969 175.707031 162.523438 175.667969 162.378906 175.632812 C 162.234375 175.597656 162.09375 175.492188 161.914062 175.347656 C 161.984375 175.527344 162.164062 175.667969 162.378906 175.777344 C 162.597656 175.847656 162.8125 175.917969 162.992188 175.917969 C 163.136719 175.917969 163.28125 175.917969 163.386719 175.882812 C 163.53125 175.882812 163.640625 175.847656 163.785156 175.847656 C 164.792969 175.847656 165.582031 176.277344 166.125 177.101562 C 165.945312 176.957031 165.691406 176.886719 165.402344 176.8125 C 165.117188 176.777344 164.863281 176.742188 164.648438 176.742188 C 164.46875 176.742188 164.324219 176.742188 164.144531 176.777344 C 163.964844 176.8125 163.820312 176.8125 163.605469 176.8125 C 163.460938 176.8125 163.316406 176.777344 163.207031 176.707031 C 163.0625 176.636719 162.957031 176.5625 162.882812 176.421875 C 162.921875 176.457031 162.992188 176.457031 163.0625 176.457031 L 163.242188 176.457031 C 163.386719 176.457031 163.566406 176.421875 163.710938 176.382812 C 163.855469 176.347656 164.035156 176.3125 164.179688 176.3125 C 164.324219 176.3125 164.503906 176.347656 164.648438 176.382812 C 164.792969 176.421875 164.9375 176.492188 165.078125 176.5625 C 164.972656 176.421875 164.792969 176.3125 164.613281 176.277344 C 164.433594 176.207031 164.25 176.171875 164.070312 176.171875 C 163.929688 176.171875 163.785156 176.171875 163.640625 176.207031 C 163.496094 176.242188 163.351562 176.242188 163.207031 176.242188 C 162.921875 176.242188 162.632812 176.171875 162.308594 176.027344 C 161.984375 175.882812 161.769531 175.667969 161.660156 175.417969 C 161.730469 175.847656 161.949219 176.207031 162.308594 176.492188 C 162.667969 176.777344 163.0625 176.921875 163.496094 176.921875 C 163.675781 176.921875 163.890625 176.921875 164.109375 176.886719 C 164.324219 176.851562 164.503906 176.851562 164.71875 176.851562 C 165.042969 176.851562 165.367188 176.886719 165.65625 176.992188 C 165.945312 177.0625 166.195312 177.277344 166.375 177.566406 C 166.125 177.386719 165.835938 177.242188 165.511719 177.136719 C 165.1875 177.027344 164.863281 176.992188 164.574219 176.992188 C 164.359375 176.992188 164.144531 177.027344 163.929688 177.0625 L 164.109375 177.0625 C 164.46875 177.0625 164.863281 177.101562 165.222656 177.207031 C 165.621094 177.277344 165.945312 177.457031 166.195312 177.742188 C 165.980469 177.601562 165.761719 177.492188 165.476562 177.421875 C 165.296875 177.242188 165.007812 177.207031 164.792969 177.207031 Z M 162.667969 172.128906 C 162.488281 172.199219 162.34375 172.273438 162.199219 172.34375 C 162.054688 172.414062 161.949219 172.523438 161.914062 172.664062 C 161.875 172.808594 161.730469 172.878906 161.480469 172.878906 C 161.15625 172.878906 160.941406 172.738281 160.796875 172.449219 C 160.652344 172.164062 160.582031 171.878906 160.582031 171.628906 C 160.582031 171.34375 160.652344 171.089844 160.832031 170.878906 C 161.011719 170.664062 161.226562 170.519531 161.550781 170.519531 C 161.695312 170.519531 161.839844 170.554688 162.019531 170.625 C 162.199219 170.699219 162.34375 170.804688 162.488281 170.914062 C 162.632812 171.019531 162.738281 171.164062 162.847656 171.304688 C 162.957031 171.449219 162.992188 171.59375 162.992188 171.769531 C 162.921875 171.949219 162.847656 172.058594 162.667969 172.128906 Z M 163.964844 175.0625 C 163.785156 175.0625 163.605469 175.0625 163.425781 175.097656 C 163.242188 175.132812 163.0625 175.132812 162.882812 175.132812 C 162.703125 175.132812 162.558594 175.132812 162.378906 175.097656 C 162.199219 175.0625 162.054688 174.988281 161.949219 174.847656 C 162.128906 174.847656 162.34375 174.8125 162.523438 174.773438 C 162.738281 174.738281 162.921875 174.738281 163.101562 174.738281 C 163.425781 174.738281 163.710938 174.773438 164.035156 174.882812 C 163.890625 174.773438 163.710938 174.667969 163.53125 174.632812 C 163.316406 174.597656 163.136719 174.5625 162.957031 174.5625 C 162.8125 174.5625 162.632812 174.5625 162.488281 174.597656 C 162.34375 174.597656 162.199219 174.632812 162.054688 174.632812 C 161.769531 174.632812 161.515625 174.597656 161.265625 174.488281 C 161.046875 174.382812 160.867188 174.203125 160.722656 173.953125 C 161.011719 174.132812 161.265625 174.273438 161.515625 174.308594 C 161.730469 174.347656 162.019531 174.382812 162.378906 174.382812 C 162.8125 174.382812 163.28125 174.453125 163.746094 174.597656 C 164.214844 174.738281 164.613281 174.988281 164.972656 175.277344 C 164.613281 175.132812 164.289062 175.0625 163.964844 175.0625 Z M 163.964844 175.0625 " fill-opacity="1" fill-rule="nonzero"/></svg>