<svg xmlns="http://www.w3.org/2000/svg" xmlns:xlink="http://www.w3.org/1999/xlink" width="500" zoomAndPan="magnify" viewBox="0 0 375 374.999991" height="500" preserveAspectRatio="xMidYMid meet" version="1.0"><defs><clipPath id="856f7d3ee1"><path d="M 37 138.75 L 90 138.75 L 90 225 L 37 225 Z M 37 138.75 " clip-rule="nonzero"/></clipPath><clipPath id="eec0951d84"><path d="M 153 172 L 203 172 L 203 236.25 L 153 236.25 Z M 153 172 " clip-rule="nonzero"/></clipPath></defs><path fill="#f7941d" d="M 349.804688 177.863281 L 318.160156 177.863281 L 318.160156 185.511719 C 318.3125 185.511719 318.386719 185.585938 318.535156 185.738281 C 318.6875 185.886719 318.761719 185.960938 318.835938 185.960938 C 318.609375 185.960938 318.460938 185.960938 318.386719 185.886719 C 318.386719 185.738281 320.710938 185.214844 325.433594 184.386719 C 327.160156 184.089844 328.882812 183.9375 330.609375 183.9375 C 337.730469 183.9375 342.304688 185.960938 344.332031 189.9375 C 345.679688 192.5625 346.355469 197.960938 346.355469 206.058594 L 346.355469 224.355469 C 345.679688 224.128906 343.207031 223.082031 338.78125 221.28125 C 338.78125 220.230469 338.558594 219.632812 338.183594 219.332031 C 336.53125 220.304688 335.109375 221.054688 334.058594 221.582031 C 330.609375 223.230469 326.632812 223.980469 322.136719 223.980469 C 315.910156 223.980469 311.113281 222.03125 307.738281 218.054688 C 306.089844 216.183594 305.265625 214.007812 305.265625 211.683594 C 305.265625 209.058594 306.539062 206.433594 309.164062 203.882812 C 314.1875 198.859375 320.410156 196.3125 327.910156 196.3125 C 332.410156 196.3125 336.082031 197.359375 338.855469 199.460938 L 338.855469 195.109375 C 337.433594 193.3125 336.082031 192.1875 334.808594 191.585938 C 333.457031 190.988281 331.734375 190.6875 329.410156 190.761719 C 324.308594 190.835938 319.660156 191.8125 315.386719 193.535156 C 313.511719 194.359375 311.636719 195.035156 309.839844 195.636719 L 309.839844 192.113281 C 310.214844 191.738281 310.886719 191.210938 311.636719 190.535156 C 311.789062 190.386719 311.863281 190.3125 311.863281 190.238281 L 311.863281 177.863281 L 302.113281 177.863281 L 302.113281 172.164062 L 349.65625 172.164062 L 349.65625 177.863281 Z M 338.933594 208.007812 C 338.933594 206.582031 337.28125 205.382812 333.984375 204.257812 C 331.207031 203.359375 328.960938 202.910156 327.085938 202.910156 C 320.410156 202.910156 315.085938 205.308594 311.039062 210.109375 C 309.386719 212.058594 308.636719 213.632812 308.636719 214.832031 C 309.3125 217.15625 311.9375 218.28125 316.4375 218.28125 C 322.359375 218.28125 327.683594 216.78125 332.558594 213.855469 C 336.832031 211.308594 338.933594 209.359375 338.933594 208.007812 Z M 338.933594 208.007812 " fill-opacity="1" fill-rule="nonzero"/><path fill="#f7941d" d="M 374.023438 174.339844 C 374.25 174.339844 374.476562 174.414062 374.699219 174.640625 C 374.851562 174.789062 375 175.015625 375 175.316406 C 375 175.613281 374.925781 175.765625 374.699219 175.988281 C 374.550781 176.214844 374.324219 176.289062 374.023438 176.289062 C 373.800781 176.289062 373.574219 176.214844 373.425781 176.066406 C 373.273438 176.738281 372.976562 177.414062 372.527344 178.015625 C 372.074219 178.613281 371.402344 178.988281 370.652344 178.988281 C 369.976562 178.988281 369.449219 178.765625 368.925781 178.238281 C 368.925781 178.464844 368.851562 178.6875 368.851562 178.988281 C 368.851562 179.289062 368.777344 179.515625 368.703125 179.8125 C 368.625 180.039062 368.476562 180.265625 368.328125 180.414062 C 368.175781 180.5625 367.953125 180.714844 367.652344 180.714844 C 367.277344 180.714844 367.050781 180.5625 366.828125 180.339844 C 366.675781 180.039062 366.527344 179.738281 366.527344 179.4375 C 366.300781 179.515625 366.152344 179.589844 365.925781 179.589844 C 365.703125 179.589844 365.476562 179.515625 365.25 179.289062 C 365.027344 179.0625 364.953125 178.839844 364.953125 178.613281 C 364.953125 178.539062 364.953125 178.464844 365.027344 178.390625 C 365.027344 178.3125 365.101562 178.238281 365.101562 178.164062 L 334.507812 178.164062 L 335.03125 177.265625 C 335.109375 177.113281 335.40625 176.738281 335.78125 176.214844 C 336.15625 175.691406 336.609375 175.164062 336.984375 174.566406 C 337.433594 173.964844 337.808594 173.515625 338.183594 173.066406 C 338.558594 172.617188 338.78125 172.390625 338.933594 172.390625 L 365.101562 172.390625 C 365.027344 172.015625 365.027344 171.714844 365.101562 171.339844 C 365.175781 171.039062 365.476562 170.890625 365.925781 170.890625 C 366.152344 170.890625 366.375 170.964844 366.527344 171.117188 C 366.527344 170.816406 366.601562 170.515625 366.828125 170.214844 C 366.976562 169.914062 367.277344 169.765625 367.652344 169.765625 C 367.953125 169.765625 368.175781 169.839844 368.328125 170.066406 C 368.476562 170.289062 368.625 170.515625 368.703125 170.816406 C 368.777344 171.117188 368.851562 171.414062 368.925781 171.714844 C 368.925781 172.015625 369 172.316406 369 172.539062 C 369.449219 172.089844 369.976562 171.867188 370.652344 171.867188 C 371.402344 171.867188 372.074219 172.164062 372.527344 172.765625 C 372.976562 173.367188 373.273438 174.039062 373.425781 174.714844 C 373.574219 174.414062 373.800781 174.339844 374.023438 174.339844 M 357.527344 176.964844 C 358.054688 176.964844 358.503906 176.816406 358.878906 176.441406 C 359.253906 176.066406 359.402344 175.613281 359.402344 175.089844 C 359.402344 174.566406 359.253906 174.113281 358.878906 173.742188 C 358.503906 173.367188 358.054688 173.214844 357.527344 173.214844 C 357.003906 173.214844 356.554688 173.441406 356.179688 173.816406 C 355.804688 174.191406 355.652344 174.640625 355.652344 175.164062 C 355.652344 175.691406 355.804688 176.140625 356.179688 176.515625 C 356.554688 176.738281 357.003906 176.964844 357.527344 176.964844 Z M 357.527344 176.964844 " fill-opacity="1" fill-rule="nonzero"/><g clip-path="url(#856f7d3ee1)"><path fill="#f7941d" d="M 89.683594 177.863281 L 58.5625 177.863281 L 58.5625 190.160156 C 60.4375 189.113281 63.511719 187.6875 67.710938 185.960938 C 69.4375 185.511719 71.535156 185.289062 74.011719 185.289062 C 77.382812 185.289062 80.382812 186.1875 83.082031 188.0625 C 86.082031 190.085938 87.582031 192.785156 87.582031 196.011719 C 87.582031 200.433594 85.03125 203.585938 80.007812 205.609375 C 77.910156 206.433594 76.109375 206.808594 74.609375 206.808594 L 85.558594 220.230469 L 79.558594 224.578125 L 62.613281 204.484375 L 65.761719 197.960938 C 67.410156 198.410156 69.210938 198.636719 71.011719 198.636719 C 73.710938 198.636719 75.886719 198.035156 77.609375 196.761719 C 79.558594 195.335938 80.535156 193.386719 80.535156 190.761719 C 80.535156 188.210938 78.734375 186.9375 75.136719 186.9375 C 72.585938 186.9375 69.960938 188.136719 67.113281 190.613281 C 65.085938 192.335938 63.289062 194.4375 61.5625 196.910156 C 59.539062 199.910156 58.5625 202.460938 58.5625 204.558594 L 58.5625 224.503906 L 50.316406 220.832031 L 50.316406 177.863281 L 44.316406 177.863281 L 44.316406 172.164062 L 50.089844 172.164062 C 50.089844 163.09375 48.441406 155.59375 45.140625 149.519531 C 44.542969 148.320312 43.265625 146.59375 41.464844 144.269531 C 39.742188 142.023438 38.542969 140.222656 37.941406 138.945312 L 47.617188 138.945312 C 49.488281 140.671875 51.441406 143.519531 53.390625 147.496094 C 56.761719 154.246094 58.488281 162.492188 58.488281 172.164062 L 89.832031 172.164062 L 89.832031 177.863281 Z M 89.683594 177.863281 " fill-opacity="1" fill-rule="nonzero"/></g><path fill="#f7941d" d="M 136.546875 177.863281 L 88.558594 177.863281 L 88.558594 172.164062 L 136.546875 172.164062 Z M 132.648438 194.960938 C 132.648438 196.835938 131.523438 198.933594 129.273438 201.257812 C 127.398438 203.285156 125.375 204.710938 123.273438 205.757812 L 116.152344 197.660156 C 118.328125 197.433594 120.351562 196.6875 122.300781 195.261719 C 124.550781 193.6875 125.601562 191.886719 125.601562 189.863281 C 125.601562 188.8125 124.925781 187.835938 123.5 187.085938 C 122.300781 186.414062 121.101562 186.039062 119.976562 186.039062 C 117.5 186.039062 114.953125 187.238281 112.175781 189.5625 C 106.480469 194.285156 103.703125 199.535156 103.703125 205.308594 L 103.703125 225.40625 L 94.554688 220.679688 L 94.554688 185.585938 L 103.703125 185.585938 L 103.703125 189.1875 C 105.054688 187.835938 107.902344 186.414062 112.175781 184.914062 C 114.277344 184.164062 116.453125 183.789062 118.625 183.789062 C 123.199219 183.789062 127.097656 185.511719 130.324219 189.039062 C 131.898438 190.835938 132.648438 192.785156 132.648438 194.960938 Z M 132.648438 194.960938 " fill-opacity="1" fill-rule="nonzero"/><path fill="#f7941d" d="M 154.617188 177.863281 L 135.273438 177.863281 L 135.273438 172.164062 L 154.617188 172.164062 Z M 149.21875 224.804688 L 141.273438 220.382812 L 141.273438 183.789062 L 149.21875 183.789062 Z M 149.21875 224.804688 " fill-opacity="1" fill-rule="nonzero"/><g clip-path="url(#eec0951d84)"><path fill="#f7941d" d="M 202.460938 177.863281 L 197.285156 177.863281 L 197.285156 195.9375 C 195.410156 194.8125 192.710938 193.910156 189.1875 193.085938 C 185.886719 192.335938 183.039062 191.960938 180.640625 191.960938 C 174.863281 191.960938 169.992188 193.011719 166.089844 195.035156 C 163.84375 196.234375 162.792969 197.734375 162.792969 199.609375 C 162.792969 202.160156 164.140625 203.433594 166.765625 203.433594 C 168.417969 203.433594 170.515625 202.984375 173.066406 202.007812 C 174.714844 201.410156 176.890625 200.660156 179.515625 199.761719 C 180.640625 199.386719 182.589844 199.160156 185.4375 199.160156 C 190.910156 199.160156 194.960938 200.886719 197.660156 204.257812 C 198.933594 205.910156 199.609375 207.785156 199.609375 209.957031 C 199.609375 214.980469 196.460938 218.957031 190.085938 221.804688 C 187.460938 223.003906 184.988281 223.679688 182.589844 223.832031 C 184.839844 226.078125 187.011719 227.28125 189.113281 227.28125 C 189.785156 227.28125 190.460938 227.203125 191.210938 226.980469 L 196.011719 234.777344 C 195.035156 235.601562 193.011719 236.054688 190.011719 236.054688 C 187.539062 236.054688 185.4375 235.226562 183.714844 233.503906 C 182.8125 232.601562 181.464844 230.652344 179.8125 227.730469 C 178.390625 225.253906 177.191406 223.980469 176.289062 223.90625 C 170.441406 223.753906 165.941406 222.707031 162.792969 220.753906 C 160.769531 219.554688 159.792969 217.832031 159.792969 215.65625 C 159.792969 213.03125 161.367188 211.683594 164.515625 211.683594 C 165.71875 211.683594 168.117188 212.582031 171.867188 214.382812 C 175.613281 216.183594 178.613281 217.082031 181.089844 217.082031 C 185.886719 217.082031 190.386719 215.957031 194.585938 213.632812 C 196.609375 212.507812 197.660156 211.15625 197.660156 209.582031 C 197.660156 207.183594 195.785156 205.984375 191.960938 205.984375 C 190.761719 205.984375 187.011719 206.808594 180.640625 208.535156 C 176.890625 209.582031 174.566406 210.03125 173.742188 210.03125 C 168.714844 210.03125 164.59375 207.632812 161.292969 202.910156 C 159.71875 200.660156 158.894531 198.183594 158.894531 195.5625 C 158.894531 190.238281 162.492188 186.636719 169.839844 184.761719 C 172.839844 184.011719 175.691406 183.636719 178.3125 183.636719 C 181.390625 183.636719 185.664062 184.386719 191.210938 185.886719 L 191.210938 177.863281 L 153.417969 177.863281 L 153.417969 172.164062 L 202.460938 172.164062 Z M 202.460938 177.863281 " fill-opacity="1" fill-rule="nonzero"/></g><path fill="#f7941d" d="M 254.125 177.863281 L 215.808594 177.863281 L 215.808594 192.1875 C 219.257812 188.4375 222.480469 185.960938 225.40625 184.914062 C 227.054688 184.3125 228.929688 184.011719 230.953125 184.011719 C 238.675781 184.011719 244.449219 187.835938 248.273438 195.410156 C 249.925781 198.710938 250.824219 202.007812 250.824219 205.234375 C 250.824219 211.15625 248.425781 216.40625 243.550781 221.207031 C 241.902344 222.78125 240.703125 223.90625 239.953125 224.503906 L 232.152344 219.855469 C 234.101562 217.832031 236.351562 215.28125 238.828125 212.28125 C 241.675781 208.910156 243.101562 204.632812 243.101562 199.460938 C 243.101562 196.386719 242.425781 193.835938 241 191.738281 C 239.351562 189.335938 237.101562 188.136719 234.179688 188.210938 C 231.480469 188.289062 228.554688 189.335938 225.40625 191.285156 C 222.628906 193.085938 220.304688 195.1875 218.507812 197.660156 C 216.480469 200.285156 215.507812 202.910156 215.507812 205.382812 L 215.507812 224.207031 L 206.660156 219.480469 L 206.660156 177.863281 L 201.410156 177.863281 L 201.410156 172.164062 L 206.660156 172.164062 C 206.660156 162.867188 204.257812 154.917969 199.386719 148.394531 C 196.460938 144.421875 193.761719 141.648438 191.285156 140.070312 L 200.886719 139.996094 C 206.207031 142.921875 210.40625 149.144531 213.558594 158.816406 C 215.058594 163.390625 215.808594 167.890625 215.808594 172.242188 L 254.125 172.242188 Z M 254.125 177.863281 " fill-opacity="1" fill-rule="nonzero"/><path fill="#f7941d" d="M 304.140625 177.863281 L 253.074219 177.863281 L 253.074219 172.164062 L 304.140625 172.164062 Z M 293.941406 198.785156 C 293.941406 191.210938 290.34375 187.386719 283.144531 187.386719 C 277.820312 187.386719 273.394531 190.160156 269.796875 195.710938 C 266.648438 200.660156 265.070312 205.910156 265.070312 211.457031 L 265.070312 225.253906 L 257.273438 221.207031 L 257.273438 185.511719 L 265.445312 185.511719 L 265.445312 191.136719 L 269.644531 187.988281 C 273.394531 185.136719 277.292969 183.789062 281.492188 183.789062 C 287.117188 183.789062 291.765625 185.960938 295.515625 190.3125 C 298.964844 194.4375 300.765625 199.386719 300.765625 205.082031 C 300.765625 212.28125 297.691406 219.179688 291.617188 225.78125 L 282.46875 220.007812 C 285.316406 217.15625 287.71875 214.605469 289.742188 212.207031 C 292.515625 208.910156 293.941406 204.410156 293.941406 198.785156 Z M 293.941406 198.785156 " fill-opacity="1" fill-rule="nonzero"/><path fill="#f7941d" d="M 45.664062 172.089844 C 45.816406 172.089844 46.117188 172.316406 46.492188 172.839844 C 46.941406 173.367188 47.390625 173.964844 47.914062 174.566406 C 48.367188 175.238281 48.890625 175.839844 49.339844 176.515625 C 49.789062 177.113281 50.089844 177.566406 50.164062 177.789062 L 19.347656 177.789062 C 19.496094 178.164062 19.421875 178.464844 19.269531 178.765625 C 19.121094 179.0625 18.820312 179.214844 18.445312 179.214844 C 18.222656 179.214844 18.070312 179.140625 17.847656 179.0625 L 17.921875 179.140625 C 17.921875 179.4375 17.847656 179.738281 17.621094 180.039062 C 17.398438 180.265625 17.171875 180.414062 16.796875 180.414062 C 16.496094 180.414062 16.195312 180.265625 15.972656 179.964844 C 14.246094 180.5625 13.347656 181.761719 13.347656 183.636719 C 13.347656 184.613281 13.496094 185.664062 13.871094 186.789062 C 14.246094 187.914062 14.695312 189.039062 15.148438 190.238281 C 15.597656 191.4375 16.046875 192.636719 16.496094 193.910156 C 16.945312 195.109375 17.171875 196.386719 17.246094 197.660156 C 17.695312 198.410156 18.222656 199.160156 18.671875 199.910156 C 19.121094 200.660156 19.496094 201.410156 19.871094 202.234375 C 20.246094 202.984375 20.546875 203.808594 20.769531 204.632812 C 20.996094 205.457031 21.144531 206.359375 21.144531 207.257812 C 21.144531 208.007812 21.070312 208.683594 20.847656 209.28125 C 20.621094 209.882812 20.320312 210.558594 19.871094 211.082031 C 19.945312 211.308594 19.945312 211.53125 19.871094 211.683594 C 19.796875 211.90625 19.644531 211.984375 19.269531 211.984375 C 19.269531 212.507812 19.121094 213.03125 18.746094 213.558594 C 18.371094 214.082031 18.070312 214.53125 17.695312 214.90625 L 16.347656 213.257812 C 16.796875 213.183594 17.246094 213.03125 17.695312 212.734375 C 18.144531 212.433594 18.445312 212.132812 18.746094 211.757812 C 18.519531 211.609375 18.445312 211.382812 18.445312 211.15625 C 18.445312 211.007812 18.519531 210.859375 18.671875 210.707031 C 18.820312 210.558594 18.972656 210.558594 19.121094 210.558594 C 19.195312 210.558594 19.269531 210.558594 19.347656 210.558594 C 19.421875 210.558594 19.496094 210.558594 19.496094 210.632812 C 19.945312 210.03125 20.246094 209.507812 20.394531 208.984375 C 20.546875 208.457031 20.621094 207.859375 20.621094 207.109375 C 20.621094 205.457031 20.246094 203.882812 19.570312 202.535156 C 18.894531 201.109375 18.070312 199.761719 17.246094 198.410156 C 17.171875 199.761719 16.871094 201.035156 16.273438 202.085938 C 15.671875 203.210938 14.847656 204.109375 13.796875 205.007812 C 13.871094 205.457031 13.722656 205.683594 13.199219 205.757812 C 13.199219 206.285156 12.972656 206.808594 12.671875 207.332031 C 12.371094 207.859375 11.996094 208.308594 11.621094 208.683594 L 10.273438 207.035156 C 10.722656 206.957031 11.171875 206.808594 11.621094 206.507812 C 11.996094 206.207031 12.371094 205.910156 12.597656 205.535156 C 12.449219 205.457031 12.371094 205.308594 12.371094 205.085938 C 12.371094 204.859375 12.449219 204.710938 12.597656 204.632812 C 12.746094 204.484375 12.898438 204.410156 13.046875 204.410156 C 13.273438 204.410156 13.421875 204.484375 13.496094 204.558594 C 14.546875 203.734375 15.371094 202.757812 15.898438 201.710938 C 16.421875 200.660156 16.722656 199.386719 16.722656 198.035156 L 16.722656 197.660156 C 16.195312 196.910156 15.523438 195.9375 14.773438 194.886719 C 13.945312 193.835938 13.199219 192.710938 12.449219 191.511719 C 11.699219 190.3125 11.097656 189.1875 10.574219 188.0625 C 10.046875 186.9375 9.75 185.886719 9.75 184.914062 C 9.75 184.164062 9.898438 183.414062 10.199219 182.664062 C 10.496094 181.914062 10.949219 181.390625 11.472656 180.863281 C 11.996094 180.339844 12.597656 179.964844 13.347656 179.589844 C 14.097656 179.289062 14.773438 179.140625 15.597656 179.140625 L 15.746094 179.140625 C 15.746094 178.914062 15.746094 178.765625 15.671875 178.539062 C 15.597656 178.3125 15.597656 178.089844 15.523438 177.9375 C 14.996094 178.464844 14.398438 178.6875 13.796875 178.6875 C 13.046875 178.6875 12.371094 178.390625 11.921875 177.714844 C 11.472656 177.113281 11.171875 176.441406 11.097656 175.765625 C 10.949219 175.914062 10.722656 175.988281 10.496094 175.988281 C 10.273438 175.988281 10.046875 175.914062 9.824219 175.691406 C 9.671875 175.539062 9.523438 175.316406 9.523438 175.015625 C 9.523438 174.714844 9.597656 174.566406 9.824219 174.339844 C 9.972656 174.191406 10.199219 174.039062 10.496094 174.039062 C 10.648438 174.039062 10.871094 174.113281 11.097656 174.265625 C 11.171875 173.664062 11.472656 173.066406 11.847656 172.464844 C 12.222656 171.867188 12.746094 171.566406 13.421875 171.414062 C 13.121094 170.367188 12.523438 169.691406 11.699219 169.316406 C 10.871094 168.941406 9.972656 168.792969 9 168.640625 C 9.296875 168.566406 9.597656 168.566406 9.75 168.566406 C 10.199219 168.566406 10.722656 168.640625 11.171875 168.792969 C 11.699219 168.941406 12.148438 169.167969 12.523438 169.390625 C 12.074219 168.867188 11.398438 168.566406 10.722656 168.339844 C 9.972656 168.191406 9.296875 168.117188 8.625 168.117188 L 8.25 168.117188 C 8.625 168.042969 9.074219 167.964844 9.449219 167.964844 C 9.972656 167.964844 10.574219 168.042969 11.171875 168.265625 C 11.773438 168.492188 12.296875 168.714844 12.746094 169.089844 C 12.449219 168.566406 11.996094 168.191406 11.398438 168.042969 C 10.796875 167.890625 10.273438 167.816406 9.597656 167.816406 C 9.222656 167.816406 8.847656 167.816406 8.472656 167.890625 C 8.097656 167.964844 7.722656 167.964844 7.347656 167.964844 C 6.523438 167.964844 5.773438 167.742188 5.097656 167.214844 C 4.425781 166.691406 4.050781 166.015625 3.898438 165.191406 C 4.125 165.640625 4.574219 166.089844 5.175781 166.316406 C 5.773438 166.542969 6.296875 166.765625 6.824219 166.765625 C 7.046875 166.765625 7.347656 166.765625 7.648438 166.691406 C 7.949219 166.691406 8.25 166.691406 8.472656 166.691406 C 8.773438 166.691406 9.148438 166.765625 9.523438 166.839844 C 9.898438 166.992188 10.199219 167.140625 10.421875 167.367188 C 10.199219 167.214844 9.898438 167.140625 9.597656 166.992188 C 9.296875 166.839844 9 166.839844 8.699219 166.839844 C 8.398438 166.839844 8.097656 166.917969 7.796875 166.992188 C 7.5 167.066406 7.273438 167.140625 6.972656 167.140625 C 6.898438 167.140625 6.75 167.140625 6.671875 167.140625 C 6.523438 167.140625 6.449219 167.140625 6.375 167.066406 C 6.523438 167.292969 6.75 167.515625 6.972656 167.589844 C 7.199219 167.742188 7.5 167.742188 7.722656 167.742188 C 8.097656 167.742188 8.398438 167.742188 8.699219 167.667969 C 9 167.589844 9.296875 167.589844 9.671875 167.589844 C 10.121094 167.589844 10.574219 167.667969 11.097656 167.742188 C 11.621094 167.816406 12.074219 168.042969 12.449219 168.265625 C 11.324219 166.691406 9.898438 165.941406 8.023438 165.941406 C 7.796875 165.941406 7.5 165.941406 7.273438 166.015625 C 7.046875 166.015625 6.75 166.089844 6.523438 166.089844 C 6.148438 166.089844 5.773438 166.015625 5.324219 165.867188 C 4.875 165.71875 4.574219 165.417969 4.425781 165.117188 C 4.722656 165.34375 5.023438 165.566406 5.25 165.640625 C 5.472656 165.71875 5.773438 165.792969 6.222656 165.792969 C 6.597656 165.792969 6.898438 165.792969 7.273438 165.71875 C 7.574219 165.71875 7.949219 165.640625 8.324219 165.640625 C 8.921875 165.640625 9.523438 165.792969 10.199219 166.167969 C 10.871094 166.542969 11.398438 166.839844 11.847656 167.292969 C 11.847656 167.140625 11.773438 166.992188 11.621094 166.839844 C 11.472656 166.691406 11.246094 166.542969 11.097656 166.390625 C 10.871094 166.242188 10.648438 166.089844 10.496094 165.941406 C 10.273438 165.792969 10.121094 165.71875 10.046875 165.640625 C 9.75 165.417969 9.375 165.265625 9 165.191406 C 8.625 165.117188 8.25 165.117188 7.875 165.117188 L 6.296875 165.117188 C 5.699219 165.117188 5.175781 165.042969 4.722656 164.96875 C 4.273438 164.816406 3.898438 164.667969 3.523438 164.441406 C 3.148438 164.21875 2.847656 163.917969 2.550781 163.542969 C 2.25 163.167969 1.949219 162.71875 1.574219 162.191406 C 1.273438 161.742188 0.976562 161.292969 0.824219 160.992188 C 0.601562 160.691406 0.449219 160.394531 0.375 160.09375 C 0.300781 159.792969 0.148438 159.492188 0.0742188 159.117188 C 0 158.742188 0 158.21875 0 157.617188 C 0 156.945312 0.0742188 156.269531 0.148438 155.59375 C 0.148438 156.042969 0.0742188 156.492188 0.0742188 157.09375 C 0.0742188 157.695312 0.148438 158.292969 0.226562 158.816406 C 0.375 159.417969 0.523438 159.941406 0.75 160.46875 C 0.976562 160.992188 1.273438 161.367188 1.648438 161.667969 L 1.726562 161.367188 L 1.800781 161.816406 C 2.324219 162.34375 2.925781 162.71875 3.597656 162.792969 C 4.273438 162.867188 4.949219 162.941406 5.699219 163.015625 C 5.023438 162.792969 4.425781 162.640625 3.75 162.417969 C 3.148438 162.191406 2.550781 161.96875 2.097656 161.59375 C 1.648438 161.21875 1.199219 160.84375 0.898438 160.316406 C 0.601562 159.792969 0.449219 159.117188 0.449219 158.292969 C 0.449219 157.695312 0.449219 157.167969 0.523438 156.570312 C 0.675781 156.042969 0.75 155.445312 0.75 154.84375 C 0.75 154.394531 0.675781 153.945312 0.601562 153.496094 C 0.523438 153.042969 0.375 152.59375 0.148438 152.21875 C 0.375 152.59375 0.75 152.96875 1.273438 153.195312 C 1.726562 153.496094 2.324219 153.71875 2.847656 153.945312 C 3.375 154.167969 3.972656 154.394531 4.648438 154.617188 C 5.25 154.84375 5.847656 155.144531 6.296875 155.519531 C 6.75 155.96875 7.199219 156.417969 7.5 156.945312 C 7.796875 157.46875 7.949219 158.070312 7.949219 158.816406 C 7.949219 159.34375 7.796875 159.867188 7.574219 160.394531 C 7.347656 160.917969 7.199219 161.441406 7.199219 161.894531 C 7.199219 162.566406 7.5 163.015625 8.097656 163.316406 C 7.949219 163.09375 7.796875 162.941406 7.648438 162.792969 C 7.5 162.640625 7.5 162.417969 7.5 162.191406 C 7.5 161.894531 7.574219 161.59375 7.648438 161.292969 C 7.796875 160.992188 7.875 160.691406 8.023438 160.394531 C 8.171875 160.09375 8.324219 159.792969 8.398438 159.492188 C 8.546875 159.191406 8.546875 158.894531 8.546875 158.59375 C 8.546875 158.144531 8.398438 157.695312 8.097656 157.167969 C 7.796875 156.71875 7.5 156.269531 7.125 155.96875 C 7.5 156.195312 7.875 156.570312 8.25 156.945312 C 8.625 157.320312 8.773438 157.84375 8.773438 158.367188 C 8.773438 158.742188 8.699219 159.042969 8.625 159.34375 C 8.546875 159.644531 8.398438 159.941406 8.25 160.242188 C 8.097656 160.542969 7.949219 160.84375 7.875 161.144531 C 7.722656 161.441406 7.722656 161.742188 7.722656 162.117188 C 7.722656 162.566406 7.875 162.941406 8.25 163.167969 C 8.097656 162.941406 8.023438 162.640625 8.023438 162.34375 C 8.023438 161.96875 8.097656 161.667969 8.25 161.367188 C 8.398438 161.066406 8.546875 160.84375 8.699219 160.542969 C 8.847656 160.242188 9 160.019531 9.148438 159.71875 C 9.296875 159.417969 9.375 159.117188 9.375 158.667969 C 9.375 158.519531 9.375 158.367188 9.296875 158.21875 C 9.296875 158.070312 9.222656 157.917969 9.074219 157.769531 C 9.449219 157.992188 9.671875 158.367188 9.671875 158.894531 C 9.671875 159.269531 9.597656 159.566406 9.449219 159.867188 C 9.296875 160.167969 9.148438 160.46875 8.921875 160.691406 C 8.699219 160.992188 8.546875 161.21875 8.398438 161.519531 C 8.25 161.742188 8.171875 162.042969 8.171875 162.34375 C 8.171875 162.417969 8.171875 162.566406 8.25 162.71875 C 8.25 162.867188 8.324219 162.941406 8.398438 163.015625 C 8.324219 162.265625 8.472656 161.667969 8.847656 161.21875 C 9.222656 160.769531 9.75 160.46875 10.496094 160.46875 C 10.796875 160.46875 11.097656 160.542969 11.398438 160.691406 C 11.621094 160.84375 11.847656 161.066406 11.847656 161.367188 C 11.546875 160.917969 11.097656 160.769531 10.496094 160.769531 C 9.972656 160.769531 9.523438 160.917969 9.148438 161.292969 C 8.773438 161.667969 8.546875 162.117188 8.546875 162.640625 C 8.546875 163.015625 8.699219 163.390625 9 163.617188 C 8.921875 163.46875 8.921875 163.242188 8.921875 162.941406 C 8.921875 162.640625 9 162.417969 9.222656 162.191406 C 9.375 161.96875 9.671875 161.816406 9.972656 161.816406 C 10.421875 161.816406 10.648438 162.042969 10.722656 162.417969 C 10.574219 162.191406 10.347656 162.042969 10.046875 162.042969 C 9.824219 162.042969 9.597656 162.117188 9.449219 162.34375 C 9.296875 162.566406 9.222656 162.792969 9.222656 163.015625 C 9.222656 163.242188 9.296875 163.542969 9.523438 163.84375 C 9.671875 164.140625 9.898438 164.441406 10.121094 164.816406 C 10.347656 165.117188 10.574219 165.417969 10.871094 165.71875 C 11.097656 166.015625 11.324219 166.242188 11.398438 166.464844 C 11.171875 165.941406 11.023438 165.417969 11.023438 164.890625 C 11.023438 164.367188 11.171875 163.765625 11.398438 163.316406 C 11.996094 162.941406 12.371094 162.566406 12.746094 162.191406 C 12.296875 162.640625 12.148438 163.167969 12.148438 163.691406 C 12.148438 163.992188 12.222656 164.367188 12.296875 164.667969 C 12.449219 164.96875 12.523438 165.265625 12.671875 165.566406 C 12.824219 165.867188 12.972656 166.167969 13.046875 166.464844 C 13.199219 166.765625 13.199219 167.066406 13.199219 167.367188 C 13.199219 167.441406 13.199219 167.589844 13.121094 167.742188 C 13.121094 167.890625 13.046875 167.964844 12.898438 168.042969 C 12.972656 167.890625 12.972656 167.667969 12.898438 167.441406 C 12.824219 167.214844 12.746094 166.917969 12.597656 166.691406 C 12.449219 166.464844 12.296875 166.167969 12.148438 165.941406 C 11.996094 165.71875 11.847656 165.492188 11.773438 165.417969 C 11.699219 165.640625 11.699219 165.792969 11.699219 165.941406 C 11.699219 166.316406 11.773438 166.765625 11.921875 167.140625 C 12.074219 167.515625 12.296875 167.964844 12.449219 168.417969 C 12.671875 168.867188 12.824219 169.316406 13.046875 169.765625 C 13.273438 170.214844 13.347656 170.664062 13.421875 171.117188 C 13.496094 170.964844 13.574219 170.816406 13.648438 170.664062 C 13.648438 170.515625 13.722656 170.367188 13.722656 170.214844 C 13.722656 169.691406 13.648438 169.089844 13.496094 168.640625 C 13.347656 168.117188 13.273438 167.589844 13.273438 167.066406 C 13.273438 166.765625 13.347656 166.464844 13.421875 166.089844 C 13.574219 165.71875 13.722656 165.417969 14.023438 165.265625 C 13.796875 165.492188 13.648438 165.792969 13.574219 166.167969 C 13.496094 166.542969 13.421875 166.839844 13.421875 167.140625 C 13.421875 167.667969 13.496094 168.265625 13.648438 168.792969 C 13.796875 169.390625 13.871094 169.917969 13.871094 170.515625 C 13.871094 170.742188 13.871094 170.890625 13.871094 171.039062 C 13.871094 171.191406 13.871094 171.414062 13.796875 171.566406 C 14.023438 171.566406 14.320312 171.714844 14.546875 171.789062 C 14.773438 171.867188 14.996094 172.089844 15.222656 172.242188 C 15.222656 172.015625 15.296875 171.789062 15.371094 171.492188 C 15.445312 171.191406 15.523438 170.816406 15.597656 170.515625 C 15.671875 170.214844 15.820312 169.917969 15.972656 169.765625 C 16.121094 169.542969 16.347656 169.464844 16.648438 169.464844 C 17.023438 169.464844 17.246094 169.617188 17.472656 169.839844 C 17.695312 170.066406 17.769531 170.367188 17.769531 170.742188 L 17.695312 170.816406 C 17.847656 170.664062 17.996094 170.589844 18.296875 170.589844 C 18.597656 170.589844 18.746094 170.664062 18.972656 170.890625 C 19.195312 171.117188 19.269531 171.339844 19.269531 171.566406 C 19.269531 171.640625 19.269531 171.789062 19.195312 171.867188 C 19.195312 172.015625 19.121094 172.089844 19.121094 172.164062 L 45.664062 172.164062 " fill-opacity="1" fill-rule="nonzero"/><path fill="#f7941d" d="M 140.222656 166.242188 C 140.070312 166.242188 139.773438 166.242188 139.398438 166.316406 C 140.523438 166.390625 141.496094 166.691406 142.398438 167.066406 C 143.222656 167.441406 143.894531 168.191406 144.195312 169.242188 C 144.421875 169.167969 144.722656 169.167969 145.019531 169.167969 C 145.097656 169.015625 145.097656 168.867188 145.097656 168.714844 L 145.097656 168.191406 C 145.097656 167.515625 145.019531 166.917969 144.796875 166.242188 C 144.644531 165.640625 144.496094 164.96875 144.496094 164.367188 C 144.496094 164.066406 144.570312 163.691406 144.644531 163.316406 C 144.722656 162.941406 144.945312 162.640625 145.097656 162.34375 C 144.796875 162.492188 144.570312 162.792969 144.421875 163.242188 C 144.269531 163.691406 144.195312 163.992188 144.195312 164.367188 C 144.195312 164.96875 144.269531 165.566406 144.496094 166.167969 C 144.644531 166.765625 144.796875 167.367188 144.796875 167.964844 C 144.796875 168.117188 144.796875 168.339844 144.722656 168.492188 C 144.722656 168.640625 144.644531 168.792969 144.496094 168.941406 C 144.421875 168.417969 144.269531 167.964844 144.046875 167.441406 C 143.820312 166.992188 143.597656 166.464844 143.371094 166.015625 C 143.144531 165.566406 142.921875 165.042969 142.769531 164.59375 C 142.621094 164.140625 142.472656 163.691406 142.472656 163.242188 C 142.472656 163.09375 142.472656 162.867188 142.546875 162.640625 C 142.621094 162.792969 142.769531 163.015625 142.921875 163.242188 C 143.070312 163.542969 143.222656 163.765625 143.371094 164.066406 C 143.519531 164.367188 143.597656 164.667969 143.671875 164.96875 C 143.746094 165.265625 143.746094 165.492188 143.671875 165.640625 C 143.746094 165.566406 143.820312 165.417969 143.894531 165.265625 C 143.894531 165.117188 143.972656 164.96875 143.972656 164.890625 C 143.972656 164.59375 143.894531 164.21875 143.746094 163.917969 C 143.597656 163.542969 143.445312 163.242188 143.296875 162.941406 C 143.144531 162.640625 142.996094 162.265625 142.847656 161.894531 C 142.695312 161.519531 142.621094 161.144531 142.621094 160.84375 C 142.621094 160.242188 142.847656 159.71875 143.296875 159.191406 C 142.847656 159.566406 142.472656 160.019531 142.171875 160.617188 C 141.871094 161.21875 141.722656 161.816406 141.722656 162.417969 C 141.722656 163.015625 141.871094 163.617188 142.171875 164.21875 C 142.023438 163.992188 141.796875 163.765625 141.570312 163.390625 C 141.273438 163.09375 141.046875 162.71875 140.746094 162.34375 C 140.445312 161.96875 140.222656 161.667969 140.070312 161.292969 C 139.847656 160.917969 139.773438 160.617188 139.773438 160.394531 C 139.773438 160.167969 139.847656 159.867188 139.996094 159.644531 C 140.148438 159.417969 140.371094 159.269531 140.671875 159.269531 C 140.972656 159.269531 141.273438 159.417969 141.421875 159.644531 C 141.347656 159.191406 141.046875 158.96875 140.523438 158.96875 C 140.148438 158.96875 139.847656 159.117188 139.695312 159.34375 C 139.472656 159.566406 139.398438 159.867188 139.398438 160.242188 C 139.398438 160.617188 139.398438 160.84375 139.472656 160.992188 C 139.171875 160.691406 139.023438 160.316406 139.023438 159.941406 C 139.023438 159.34375 139.246094 158.816406 139.695312 158.441406 C 140.148438 158.070312 140.597656 157.84375 141.195312 157.84375 C 141.796875 157.84375 142.320312 158.070312 142.621094 158.519531 C 142.546875 158.144531 142.398438 157.917969 142.097656 157.769531 C 141.796875 157.617188 141.496094 157.542969 141.121094 157.542969 C 140.296875 157.542969 139.695312 157.84375 139.246094 158.367188 C 138.796875 158.894531 138.648438 159.566406 138.796875 160.394531 C 138.722656 160.316406 138.648438 160.242188 138.648438 160.09375 C 138.648438 159.941406 138.570312 159.792969 138.570312 159.71875 C 138.570312 159.417969 138.648438 159.117188 138.796875 158.816406 C 138.945312 158.519531 139.171875 158.21875 139.398438 157.917969 C 139.621094 157.617188 139.773438 157.320312 139.996094 156.945312 C 140.148438 156.644531 140.222656 156.269531 140.222656 155.894531 C 140.222656 155.292969 139.996094 154.917969 139.546875 154.617188 C 139.621094 154.769531 139.695312 154.917969 139.773438 155.070312 C 139.773438 155.21875 139.847656 155.367188 139.847656 155.59375 C 139.847656 156.042969 139.773438 156.417969 139.621094 156.71875 C 139.472656 157.019531 139.320312 157.394531 139.097656 157.695312 C 138.945312 157.992188 138.722656 158.292969 138.574219 158.59375 C 138.421875 158.894531 138.347656 159.269531 138.347656 159.644531 C 138.347656 160.019531 138.421875 160.316406 138.574219 160.542969 C 138.199219 160.242188 137.972656 159.867188 137.972656 159.34375 C 137.972656 158.96875 138.046875 158.59375 138.199219 158.292969 C 138.347656 157.992188 138.496094 157.617188 138.648438 157.320312 C 138.796875 156.945312 138.945312 156.644531 139.097656 156.269531 C 139.246094 155.894531 139.320312 155.59375 139.320312 155.144531 C 139.320312 154.542969 139.097656 154.019531 138.722656 153.570312 C 138.273438 153.121094 137.898438 152.746094 137.449219 152.445312 C 137.824219 152.820312 138.199219 153.269531 138.496094 153.792969 C 138.796875 154.320312 138.945312 154.84375 138.945312 155.367188 C 138.945312 155.667969 138.871094 156.042969 138.722656 156.34375 C 138.574219 156.644531 138.421875 157.019531 138.273438 157.320312 C 138.121094 157.617188 137.972656 157.992188 137.824219 158.292969 C 137.671875 158.59375 137.597656 158.96875 137.597656 159.269531 C 137.597656 159.566406 137.671875 159.792969 137.824219 159.941406 C 137.972656 160.09375 138.121094 160.316406 138.273438 160.542969 C 137.597656 160.167969 137.296875 159.644531 137.296875 158.894531 C 137.296875 158.292969 137.449219 157.769531 137.671875 157.167969 C 137.972656 156.644531 138.046875 156.042969 138.046875 155.445312 C 138.046875 154.617188 137.898438 153.945312 137.523438 153.34375 C 137.148438 152.746094 136.699219 152.292969 136.171875 151.917969 C 135.648438 151.542969 135.046875 151.167969 134.296875 150.945312 C 133.625 150.644531 132.949219 150.417969 132.347656 150.195312 C 131.75 149.96875 131.148438 149.671875 130.625 149.371094 C 130.097656 149.070312 129.648438 148.695312 129.347656 148.246094 C 129.574219 148.695312 129.800781 149.21875 129.875 149.671875 C 129.949219 150.121094 130.023438 150.644531 130.023438 151.167969 C 130.023438 151.84375 130.023438 152.445312 129.949219 153.121094 C 129.875 153.71875 129.875 154.394531 129.875 155.070312 C 129.875 155.96875 130.023438 156.71875 130.324219 157.320312 C 130.625 157.917969 131.074219 158.367188 131.597656 158.742188 C 132.125 159.117188 132.796875 159.417969 133.472656 159.644531 C 134.148438 159.867188 134.898438 160.09375 135.574219 160.316406 C 134.746094 160.242188 133.921875 160.167969 133.25 160.019531 C 132.5 159.941406 131.824219 159.566406 131.222656 158.96875 L 131.148438 158.441406 L 131.074219 158.742188 C 130.625 158.441406 130.324219 157.992188 130.097656 157.394531 C 129.875 156.867188 129.648438 156.195312 129.574219 155.59375 C 129.5 154.992188 129.347656 154.320312 129.347656 153.644531 C 129.347656 152.96875 129.347656 152.445312 129.425781 151.996094 C 129.347656 152.746094 129.273438 153.496094 129.273438 154.246094 C 129.273438 154.917969 129.273438 155.445312 129.347656 155.894531 C 129.425781 156.34375 129.5 156.644531 129.648438 157.019531 C 129.800781 157.320312 129.949219 157.695312 130.175781 157.992188 C 130.398438 158.292969 130.699219 158.742188 131.074219 159.269531 C 131.449219 159.867188 131.824219 160.316406 132.125 160.691406 C 132.421875 161.066406 132.796875 161.441406 133.171875 161.667969 C 133.546875 161.96875 134 162.117188 134.523438 162.265625 C 135.046875 162.417969 135.648438 162.492188 136.324219 162.492188 L 137.972656 162.492188 C 138.347656 162.492188 138.796875 162.492188 139.171875 162.566406 C 139.621094 162.640625 139.996094 162.792969 140.371094 163.015625 C 140.445312 163.09375 140.671875 163.167969 140.820312 163.316406 C 141.046875 163.46875 141.273438 163.617188 141.496094 163.765625 C 141.722656 163.917969 141.945312 164.140625 142.097656 164.292969 C 142.246094 164.441406 142.398438 164.667969 142.398438 164.742188 C 141.871094 164.292969 141.273438 163.917969 140.523438 163.542969 C 139.773438 163.167969 139.097656 162.941406 138.496094 162.941406 C 138.121094 162.941406 137.746094 162.941406 137.371094 163.015625 C 136.996094 163.09375 136.621094 163.09375 136.246094 163.09375 C 135.796875 163.09375 135.496094 163.015625 135.199219 162.941406 C 134.898438 162.867188 134.597656 162.640625 134.222656 162.34375 C 134.375 162.71875 134.746094 163.015625 135.199219 163.242188 C 135.648438 163.390625 136.097656 163.542969 136.472656 163.542969 C 136.773438 163.542969 137.074219 163.542969 137.296875 163.46875 C 137.597656 163.46875 137.824219 163.390625 138.121094 163.390625 C 140.222656 163.390625 141.871094 164.292969 142.996094 166.015625 C 142.621094 165.71875 142.097656 165.566406 141.496094 165.417969 C 140.898438 165.34375 140.371094 165.265625 139.921875 165.265625 C 139.546875 165.265625 139.246094 165.265625 138.871094 165.34375 C 138.496094 165.417969 138.199219 165.417969 137.746094 165.417969 C 137.449219 165.417969 137.148438 165.34375 136.921875 165.191406 C 136.621094 165.042969 136.398438 164.890625 136.246094 164.59375 C 136.324219 164.667969 136.472656 164.667969 136.621094 164.667969 L 136.996094 164.667969 C 137.296875 164.667969 137.671875 164.59375 137.972656 164.515625 C 138.273438 164.441406 138.648438 164.367188 138.945312 164.367188 C 139.246094 164.367188 139.621094 164.441406 139.921875 164.515625 C 140.222656 164.59375 140.523438 164.742188 140.820312 164.890625 C 140.597656 164.59375 140.222656 164.367188 139.847656 164.292969 C 139.472656 164.140625 139.097656 164.066406 138.722656 164.066406 C 138.421875 164.066406 138.121094 164.066406 137.824219 164.140625 C 137.523438 164.21875 137.222656 164.21875 136.921875 164.21875 C 136.324219 164.21875 135.722656 164.066406 135.046875 163.765625 C 134.375 163.46875 133.921875 163.015625 133.699219 162.492188 C 133.847656 163.390625 134.296875 164.140625 135.046875 164.742188 C 135.796875 165.34375 136.621094 165.640625 137.523438 165.640625 C 137.898438 165.640625 138.347656 165.640625 138.796875 165.566406 C 139.246094 165.492188 139.621094 165.492188 140.070312 165.492188 C 140.746094 165.492188 141.421875 165.566406 142.023438 165.792969 C 142.621094 165.941406 143.144531 166.390625 143.519531 166.992188 C 142.996094 166.617188 142.398438 166.316406 141.722656 166.089844 C 141.046875 165.867188 140.371094 165.792969 139.773438 165.792969 C 139.320312 165.792969 138.871094 165.867188 138.421875 165.941406 L 138.796875 165.941406 C 139.546875 165.941406 140.371094 166.015625 141.121094 166.242188 C 141.945312 166.390625 142.621094 166.765625 143.144531 167.367188 C 142.695312 167.066406 142.246094 166.839844 141.648438 166.691406 C 141.273438 166.316406 140.671875 166.242188 140.222656 166.242188 Z M 135.796875 155.59375 C 135.421875 155.742188 135.121094 155.894531 134.824219 156.042969 C 134.523438 156.195312 134.296875 156.417969 134.222656 156.71875 C 134.148438 157.019531 133.847656 157.167969 133.324219 157.167969 C 132.648438 157.167969 132.199219 156.867188 131.898438 156.269531 C 131.597656 155.667969 131.449219 155.070312 131.449219 154.542969 C 131.449219 153.945312 131.597656 153.417969 131.972656 152.96875 C 132.347656 152.519531 132.796875 152.21875 133.472656 152.21875 C 133.773438 152.21875 134.074219 152.292969 134.449219 152.445312 C 134.824219 152.59375 135.121094 152.820312 135.421875 153.042969 C 135.722656 153.269531 135.949219 153.570312 136.171875 153.871094 C 136.398438 154.167969 136.472656 154.46875 136.472656 154.84375 C 136.324219 155.21875 136.171875 155.445312 135.796875 155.59375 Z M 138.496094 161.742188 C 138.121094 161.742188 137.746094 161.742188 137.371094 161.816406 C 136.996094 161.894531 136.621094 161.894531 136.246094 161.894531 C 135.871094 161.894531 135.574219 161.894531 135.199219 161.816406 C 134.824219 161.742188 134.523438 161.59375 134.296875 161.292969 C 134.671875 161.292969 135.121094 161.21875 135.496094 161.144531 C 135.949219 161.066406 136.324219 161.066406 136.699219 161.066406 C 137.371094 161.066406 137.972656 161.144531 138.648438 161.367188 C 138.347656 161.144531 137.972656 160.917969 137.597656 160.84375 C 137.148438 160.769531 136.773438 160.691406 136.398438 160.691406 C 136.097656 160.691406 135.722656 160.691406 135.421875 160.769531 C 135.121094 160.769531 134.824219 160.84375 134.523438 160.84375 C 133.921875 160.84375 133.398438 160.769531 132.875 160.542969 C 132.421875 160.316406 132.046875 159.941406 131.75 159.417969 C 132.347656 159.792969 132.875 160.09375 133.398438 160.167969 C 133.847656 160.242188 134.449219 160.316406 135.199219 160.316406 C 136.097656 160.316406 137.074219 160.46875 138.046875 160.769531 C 139.023438 161.066406 139.847656 161.59375 140.597656 162.191406 C 139.847656 161.894531 139.171875 161.742188 138.496094 161.742188 Z M 138.496094 161.742188 " fill-opacity="1" fill-rule="nonzero"/></svg>